<svg version="1.0" x="0px" y="0px" preserveAspectRatio="xMidYMid meet" viewBox="0 0 130 130" >
<style type="text/css">
	:root{
		--color: #ffffff;
	}
	.st0{opacity:0.3;}
	.st2{opacity:0.6;}
	.st1{fill: var(--color);}
</style>
<g id="layer3Fill" class="st0">
	<polygon class="st1" points="67.4,117.7 81.3,125.7 88.7,112.9 75.7,112.9 	"/>
	<polygon class="st1" points="12.3,67.5 4.4,81.2 17.2,88.6 17.2,76 	"/>
	<polygon class="st1" points="62.6,12.3 48.8,4.3 41.4,17.1 54.2,17.1 	"/>
	<polygon class="st1" points="117.7,62.6 125.7,48.8 112.8,41.3 112.8,54.1 	"/>
</g>
<g id="layer3Border" class="st2">
	<path class="st1" d="M39.2,17.1c0.5,0,1.7,0,2.2,0l7.4-12.8l13.8,8l1.9-1.1L48.1,1.7L39.2,17.1z"/>
	<path class="st1" d="M112.8,39.1c0,0.5,0,1.7,0,2.2l12.9,7.5l-8,13.8c0.3,0.5,0.8,1.5,1.1,2l9.5-16.5L112.8,39.1z"/>
	<path class="st1" d="M88.7,112.9l-7.4,12.8l-13.9-8l-1.9,1.1l16.5,9.5l8.9-15.4C90.4,112.9,89.2,112.9,88.7,112.9z"/>
	<path class="st1" d="M12.3,67.5c-0.3-0.5-0.8-1.4-1.1-1.9L1.8,82l15.4,8.9c0-0.6,0-1.7,0-2.3L4.4,81.2L12.3,67.5z"/>
</g>
<g id="layer2Fill" class="st2">
	<polygon class="st1" points="41.9,112.9 48.9,125.1 70.1,112.9 	"/>
	<polygon class="st1" points="17.2,70.1 17.2,41.9 5,49 	"/>
	<polygon class="st1" points="60.1,17.1 88.1,17.1 81.1,5 	"/>
	<polygon class="st1" points="112.8,60 112.8,88.2 125,81.1 	"/>
</g>
<g id="layer2Border">
	<polygon class="st1" points="17.2,76 17.2,70.1 5,49 17.2,41.9 17.2,38.5 1,47.9 	"/>
	<path class="st1" d="M54.2,17.1h5.9c0,0,19.9-11.5,21-12.1l7,12.1c0.8,0,2.5,0,3.3,0L82.1,1L54.2,17.1z"/>
	<polygon class="st1" points="112.8,54.1 112.8,60 125,81.1 112.8,88.2 112.8,91.5 129,82.2 	"/>
	<path class="st1" d="M48.9,125.1l-7-12.2c-0.8,0-2.6,0-3.4,0l9.3,16.1c6.7-3.9,21.4-12.3,27.9-16.1c-1.4,0-5.6,0-5.6,0L48.9,125.1z
		"/>
</g>
<path id="raBorder" class="st1" d="M17,17v96h96V17H17z M108,108H22V22h86V108z"/>
<g id="ra">
	<path id="aLetter" class="st1" d="M96.1,55.4c-0.7-1.9-2-3.2-3.7-4c-1.9-0.8-4.6-1.2-8.2-1.2c-4.2,0-7.9,0.3-11.1,1v4.2
		c1.2-0.2,2.7-0.4,4.7-0.5c1.9-0.1,3.5-0.2,4.8-0.2c2.9,0,5,0.2,6.2,0.5c1.3,0.4,2.1,1.2,2.5,2.3c0.5,1.2,0.7,3.2,0.7,6.1V66
		c-6.2-0.2-9.9-0.3-11.1-0.3c-2.5,0-4.5,0.3-5.9,1c-1.4,0.7-2.3,1.8-2.9,3.2c-0.6,1.4-0.9,3.5-0.9,6.2c0,3.9,0.9,6.5,2.4,8
		c1.7,1.5,4.2,2.1,7.8,2.1c2.4,0,4.6-0.4,6.4-1.1c1.9-0.7,3.2-2.1,4-4.3h0.3l0.3,4.9h4.7v-22C97.1,60,96.8,57.3,96.1,55.4z M92,71.6
		c0,2.9-0.4,5.4-1.3,7.1c-0.6,1.2-1.6,2-2.7,2.3c-1.3,0.4-2.8,0.6-4.7,0.8c-2,0-3.4-0.2-4.4-0.5c-0.9-0.4-1.6-1-2-1.8
		c-0.4-0.8-0.6-2.1-0.6-3.8s0.2-3,0.5-3.9c0.3-0.9,0.9-1.5,1.7-1.8s2.1-0.5,3.7-0.5H92V71.6z"/>
	<path id="rLetter" class="st1" d="M62.4,61.2c0.9-2.2,1.3-5.1,1.3-8.5c0-3.1-0.3-5.7-0.8-7.6c-0.5-2-1.7-3.5-3.4-4.7
		c-1.8-1.2-4.4-1.8-7.9-1.8H33.5v47.1H39V67h11.9h1.2l6.5,18.8h5.9L57.3,66C59.9,65,61.6,63.4,62.4,61.2z M55.4,61.2
		c-1.3,0.7-3.1,1-5.6,1H39V43.5h11.2c2.4,0,4.2,0.3,5.4,1c1.2,0.7,2,1.6,2.2,2.8c0.3,1.3,0.5,3,0.5,5.5c0,2.3-0.2,4.2-0.6,5.5
		C57.3,59.5,56.6,60.5,55.4,61.2z"/>
</g>
</svg>
