<svg xmlns="http://www.w3.org/2000/svg" height="16" viewBox="0 0 16 16" width="16"><path d="M14.72 8.16c0-.46-.05-.81-.11-1.16H8v2.4h3.97c-.1.62-.52 1.59-1.45 2.26v1.64h2.12c1.32-1.21 2.08-3.01 2.08-5.14z" fill="#4285F4"/><path d="M8 15c1.89 0 3.47-.63 4.63-1.69l-2.12-1.64c-.6.43-1.42.75-2.51.75-1.89 0-3.48-1.24-4.08-2.96H1.75v1.69C2.9 13.43 5.26 15 8 15z" fill="#34A853"/><path d="M3.92 9.45C3.77 9 3.66 8.51 3.66 8s.1-1 .26-1.45V4.86H1.75C1.27 5.81 1 6.87 1 8s.27 2.19.75 3.14l2.17-1.69z" fill="#FBBC05"/><path d="M8 3.58c1.36 0 2.27.58 2.79 1.08l1.9-1.83C11.47 1.69 9.89 1 8 1 5.26 1 2.9 2.57 1.75 4.86l2.17 1.69C4.52 4.83 6.11 3.58 8 3.58z" fill="#EA4335"/><path d="M1 1h14v14H1z" fill="none"/></svg>