<svg xmlns="http://www.w3.org/2000/svg" width="80" height="80" fill="none" viewBox="0 0 80 80">
  <g clip-path="url(#a)">
    <path fill="#00023B" d="M29.638 1.254 1.27 50.385l49.131 28.366 28.367-49.13-49.13-28.367Z"/>
    <path fill="#1BCEB9" d="M50.687 79.573.49 50.626 29.435.427l50.199 29.008-28.947 50.138ZM2.137 50.137 50.2 77.924l27.786-48.061L29.924 2.076 2.138 50.137Z" opacity=".4"/>
    <path fill="#00023B" d="M50.723-.033-.088 29.304l29.337 50.812L80.06 50.78 50.723-.033Z"/>
    <path fill="#1BCEB9" d="M29.252 80 0 29.313 50.748 0l29.313 50.748L29.251 80ZM2.504 29.985l27.48 47.572 47.573-27.48-27.48-47.573-47.573 27.48Z" opacity=".7"/>
    <path fill="#00023B" d="M68.397 11.603H11.664v56.733h56.733V11.603Z"/>
    <path fill="#1BCEB9" d="M69.924 69.924H10.137V10.076h59.787v59.848ZM13.19 66.87h53.68V13.13H13.19v53.74Z"/>
    <path fill="#fff" d="M36.03 52.947 31.94 41.22h-8.183v11.726h-3.42V23.51h11.298c2.198 0 3.847.367 4.946 1.1 1.1.732 1.832 1.71 2.138 2.931.305 1.221.488 2.81.488 4.763 0 2.138-.244 3.909-.794 5.313-.488 1.405-1.587 2.382-3.236 2.932l4.519 12.397H36.03Zm-2.015-15.329c.733-.427 1.222-1.038 1.466-1.832s.366-1.954.366-3.42c0-1.526-.122-2.625-.305-3.42-.183-.793-.672-1.343-1.404-1.77-.733-.428-1.833-.611-3.36-.611h-7.022v11.664h6.778c1.527 0 2.687-.183 3.481-.61Zm11.359 14.29c-.977-.916-1.527-2.565-1.527-5.007 0-1.65.183-2.932.55-3.848.366-.916.977-1.587 1.832-2.015.855-.427 2.076-.61 3.664-.61.794 0 3.114.06 6.962.183v-1.466c0-1.771-.122-3.053-.428-3.786-.305-.733-.794-1.222-1.587-1.466-.733-.183-2.016-.305-3.848-.305-.794 0-1.832.06-2.992.122a25.629 25.629 0 0 0-2.931.305V31.39c2.015-.427 4.335-.61 6.961-.61 2.26 0 3.97.244 5.13.732 1.1.489 1.893 1.344 2.32 2.504.428 1.16.611 2.87.611 5.13v13.74h-2.93l-.184-3.053h-.183c-.489 1.344-1.344 2.26-2.504 2.687-1.16.428-2.504.672-4.03.672-2.26.06-3.848-.367-4.886-1.283Zm9.038-1.832a2.888 2.888 0 0 0 1.71-1.465c.55-1.1.794-2.626.794-4.458V42.93h-6.107c-1.038 0-1.832.122-2.32.306-.49.183-.856.55-1.039 1.099-.183.55-.305 1.343-.305 2.443 0 1.099.122 1.893.366 2.381.245.489.672.855 1.222 1.1.61.183 1.526.305 2.748.305 1.16-.122 2.137-.244 2.931-.489Z"/>
  </g>
  <defs>
    <clipPath id="a">
      <path fill="#fff" d="M0 0h80v80H0z"/>
    </clipPath>
  </defs>
</svg>
