<svg xmlns="http://www.w3.org/2000/svg" width="320" height="90" fill="none" viewBox="0 0 320 90">
  <path fill="#00023B" fill-rule="evenodd" d="M86.137 7.198C86.137 3.226 83.05 0 79.247 0H6.89C3.088 0 0 3.226 0 7.198v75.585c0 3.973 3.088 7.199 6.891 7.199h72.355c3.803 0 6.891-3.226 6.891-7.199V7.198Zm233.862 0c0-3.972-3.087-7.198-6.891-7.198h-72.355c-3.803 0-6.891 3.226-6.891 7.198v75.585c0 3.973 3.088 7.199 6.891 7.199h72.355c3.804 0 6.891-3.226 6.891-7.199V7.198Z" clip-rule="evenodd"/>
  <path fill="#00023B" d="M35.608 15.783 15.16 52.78l35.416 21.361 20.448-36.997-35.416-21.36Z"/>
  <path fill="#EA1763" fill-opacity=".4" d="M50.782 74.759 14.597 52.96l20.866-37.8 36.186 21.843-20.867 37.755ZM15.785 52.593 50.43 73.517l20.03-36.191-34.645-20.924-20.03 36.191Z"/>
  <path fill="#00023B" d="M50.808 14.814 14.18 36.906l21.147 38.262 36.628-22.091-21.147-38.263Z"/>
  <path fill="#EA1763" fill-opacity=".7" d="M35.33 75.08 14.243 36.913l36.582-22.074 21.13 38.215L35.33 75.081ZM16.048 37.419l19.81 35.824L70.15 52.547 50.34 16.724 16.048 37.418Z"/>
  <path fill="#00023B" d="M63.547 23.576H22.65v42.722h40.897V23.576Z"/>
  <path fill="#EA1763" d="M64.648 67.493H21.551V22.426h43.097v45.067Zm-40.896-2.3h38.695V24.727H23.752v40.468Z"/>
  <path fill="#fff" d="m40.216 54.709-2.95-8.83h-5.898v8.83h-2.466V32.543h8.144c1.585 0 2.774.276 3.566.828.793.551 1.32 1.287 1.54 2.207.221.92.353 2.115.353 3.587 0 1.61-.176 2.943-.572 4-.352 1.059-1.145 1.794-2.333 2.208l3.257 9.336h-2.641Zm-1.453-11.543c.529-.322.88-.782 1.057-1.38.176-.598.264-1.471.264-2.575 0-1.15-.088-1.977-.22-2.575-.132-.598-.484-1.012-1.013-1.334-.528-.322-1.32-.46-2.42-.46h-5.063v8.784h4.886c1.1 0 1.937-.138 2.51-.46Zm8.189 10.761c-.704-.69-1.1-1.931-1.1-3.77 0-1.242.132-2.208.396-2.898s.704-1.196 1.32-1.517c.617-.322 1.497-.46 2.642-.46.572 0 2.245.046 5.018.138v-1.104c0-1.334-.088-2.3-.308-2.851-.22-.552-.572-.92-1.145-1.104-.528-.138-1.452-.23-2.773-.23-.572 0-1.32.046-2.157.092-.88.046-1.585.138-2.113.23v-1.978c1.453-.321 3.126-.46 5.019-.46 1.628 0 2.86.185 3.697.553.793.367 1.365 1.011 1.673 1.885.308.874.44 2.161.44 3.863v10.347h-2.113l-.132-2.3h-.132c-.352 1.012-.968 1.702-1.805 2.024-.836.322-1.805.506-2.905.506-1.629.046-2.774-.276-3.522-.966Zm6.515-1.38a2.11 2.11 0 0 0 1.233-1.103c.396-.828.572-1.978.572-3.357v-.92H50.87c-.748 0-1.32.092-1.673.23-.352.138-.616.414-.748.828s-.22 1.011-.22 1.84c0 .827.088 1.425.264 1.793.176.368.484.644.88.827.44.138 1.1.23 1.981.23.837-.092 1.541-.184 2.113-.367Z"/>
  <path fill="#fff" fill-rule="evenodd" d="M132.779 78.983a29.68 29.68 0 0 1-3.143.167c-16.877 0-30.578-14.313-30.578-31.943 0-17.63 13.701-31.944 30.578-31.944 1.549 0 3.071.12 4.558.353 5.391-9.1 15.033-15.167 26.021-15.167 10.845 0 20.379 5.91 25.809 14.814h.032c16.877 0 30.579 14.313 30.579 31.944 0 17.63-13.702 31.943-30.579 31.943a29.36 29.36 0 0 1-7.259-.907c-5.611 6.904-13.979 11.288-23.32 11.288-9.002 0-17.1-4.072-22.698-10.548Z" clip-rule="evenodd"/>
  <path fill="#00023B" fill-rule="evenodd" d="M132.779 78.983a29.68 29.68 0 0 1-3.143.167c-16.877 0-30.578-14.313-30.578-31.943 0-17.63 13.701-31.944 30.578-31.944 1.549 0 3.071.12 4.558.353 5.391-9.1 15.033-15.167 26.021-15.167 10.845 0 20.379 5.91 25.809 14.814h.032c16.877 0 30.579 14.313 30.579 31.944 0 17.63-13.702 31.943-30.579 31.943a29.36 29.36 0 0 1-7.259-.907c-5.611 6.904-13.979 11.288-23.32 11.288-9.002 0-17.1-4.072-22.698-10.548Zm1.278-1.206c5.283 6.111 12.925 9.955 21.42 9.955 8.815 0 16.711-4.138 22.006-10.654a1.68 1.68 0 0 1 1.722-.584 27.69 27.69 0 0 0 6.851.856c15.926 0 28.856-13.507 28.856-30.143 0-16.637-12.93-30.144-28.856-30.144h-.031a1.705 1.705 0 0 1-1.454-.833c-5.124-8.402-14.121-13.981-24.356-13.981-10.37 0-19.468 5.727-24.556 14.314a1.697 1.697 0 0 1-1.72.833 27.843 27.843 0 0 0-4.303-.333c-15.926 0-28.856 13.507-28.856 30.144 0 16.636 12.93 30.143 28.856 30.143 1.002 0 1.992-.053 2.967-.157a1.684 1.684 0 0 1 1.454.584Z" clip-rule="evenodd"/>
  <path fill="#00023B" d="M148.706 40.485v13.444h-3.135v-5.535h-4.877v5.535h-3.134V40.485h3.134v5.266h4.877v-5.266h3.135Zm11.514 0v2.623h-3.41v10.82h-3.134v-10.82h-3.41v-2.623h9.954Zm10.834 0v2.623h-3.41v10.82h-3.134v-10.82h-3.41v-2.623h9.954Zm11.385 4.328c0 .779-.171 1.49-.514 2.135-.342.645-.867 1.165-1.576 1.561-.709.396-1.589.594-2.64.594h-1.943v4.826h-3.135V40.485h5.078c1.027 0 1.894.185 2.603.555.709.37 1.241.881 1.595 1.532.355.651.532 1.398.532 2.241Zm-4.968 1.685c.598 0 1.045-.147 1.338-.44.293-.294.44-.709.44-1.245 0-.536-.147-.951-.44-1.245-.293-.293-.74-.44-1.338-.44h-1.705v3.37h1.705Z"/>
  <path fill="#fff" d="m267.207 26.434-4.455 9v4.444h-3.135v-4.443l-4.455-9h3.557l2.493 5.63 2.475-5.63h3.52Zm5.92 13.597c-1.008 0-1.906-.23-2.713-.67a4.878 4.878 0 0 1-1.888-1.915c-.458-.824-.678-1.8-.678-2.911 0-1.092.238-2.068.696-2.892a4.737 4.737 0 0 1 1.907-1.934c.806-.44 1.705-.67 2.713-.67s1.907.23 2.713.67a4.73 4.73 0 0 1 1.907 1.934c.458.824.696 1.8.696 2.892 0 1.091-.238 2.068-.696 2.91-.477.824-1.118 1.475-1.925 1.916-.825.44-1.723.67-2.732.67Zm0-2.834c.605 0 1.119-.23 1.54-.69.422-.46.624-1.11.624-1.972 0-.862-.202-1.513-.605-1.973-.422-.46-.917-.69-1.522-.69a1.95 1.95 0 0 0-1.522.69c-.403.44-.604 1.111-.604 1.973 0 .862.201 1.513.604 1.972.385.46.88.69 1.485.69Zm17.123-8.005V39.88h-3.134v-1.456a3.27 3.27 0 0 1-1.284 1.13 3.87 3.87 0 0 1-1.815.44c-.788 0-1.466-.191-2.071-.555-.605-.364-1.063-.88-1.393-1.57-.33-.69-.495-1.494-.495-2.433v-6.243h3.116v5.803c0 .709.183 1.264.532 1.666.348.402.825.594 1.43.594s1.1-.192 1.448-.594c.348-.402.532-.957.532-1.666v-5.803h3.134Zm5.389 1.781a4.013 4.013 0 0 1 1.375-1.38 3.367 3.367 0 0 1 1.833-.516v3.466h-.862c-.788 0-1.375.172-1.76.536-.385.345-.586.958-.586 1.839v4.96h-3.135V29.192h3.135v1.78ZM271.093 58.57h-4.803l-.77 2.374h-3.282l4.657-13.444h3.63l4.656 13.444h-3.318l-.77-2.375Zm-.807-2.529-1.595-4.921-1.576 4.921h3.171Zm16.116-4.213c0 .785-.165 1.494-.514 2.145-.348.632-.861 1.149-1.576 1.551-.715.402-1.595.594-2.64.594h-1.943v4.826h-3.135V47.5h5.078c1.026 0 1.888.191 2.603.555.715.364 1.247.881 1.595 1.532.348.652.532 1.398.532 2.241Zm-4.968 1.685c.604 0 1.044-.153 1.338-.44.293-.287.44-.709.44-1.245 0-.536-.147-.958-.44-1.245-.294-.287-.734-.44-1.338-.44h-1.705v3.37h1.705Zm9.731-6.013h-3.135v13.444h3.135V47.5Z"/>
  <path fill="#00023B" fill-rule="evenodd" d="M195.531 48.772v-3.129h29.947v-2.905l4.278 4.47-4.278 4.468v-2.904h-29.947Zm-106.968 0v-3.129h29.946v-2.905l4.278 4.47-4.278 4.468v-2.904H88.562Z" clip-rule="evenodd"/>
</svg>
