<svg width="48" height="48" viewBox="0 0 48 48" fill="none" xmlns="http://www.w3.org/2000/svg">
    <path d="M10.9416 22.3882C15.7991 21.588 19.6037 17.5722 20.4038 12.7177L20.6716 10.3826C20.737 10.0108 20.4871 9.49616 20.0171 9.53185C16.3465 9.81741 12.887 11.0281 10.9565 11.8164C10.0016 12.206 9.37695 13.1371 9.37695 14.1693V21.7843C9.37695 22.2364 9.7815 22.5785 10.2277 22.5071L10.9416 22.3911V22.3882Z" fill="black"></path>
    <path d="M22.7455 12.7149C23.5457 17.5725 27.3502 21.5853 32.2078 22.3854L32.9217 22.5014C33.3679 22.5758 33.7724 22.2308 33.7724 21.7786V14.1636C33.7724 13.1314 33.1477 12.2033 32.1929 11.8107C30.2653 11.0224 26.8029 9.81172 23.1322 9.52616C22.6622 9.49046 22.4183 10.011 22.4748 10.3769L22.7425 12.712L22.7455 12.7149Z" fill="black"></path>
    <path d="M32.2044 24.5181C25.568 25.8269 22.4863 30.2383 22.4863 38.591C22.4863 39.0105 22.9028 39.299 23.2508 39.067C26.3028 37.0085 33.0194 31.6364 33.7125 24.9137C33.7393 24.066 32.6803 24.4646 32.2044 24.5181Z" fill="black"></path>
    <path d="M10.9439 24.5182C17.5803 25.827 20.662 30.2384 20.662 38.5911C20.662 39.0105 20.2455 39.299 19.8975 39.067C16.8456 37.0086 10.1289 31.6364 9.4358 24.9138C9.40903 24.066 10.468 24.4646 10.9439 24.5182Z" fill="black"></path>
</svg>
