<svg width="25px" height="17px" viewBox="0 0 24 22" version="1.1" xmlns="http://www.w3.org/2000/svg" preserveAspectRatio="xMidYMid">
    <path d="M14.3128 20.0394C14.3651 20.1298 14.4618 20.1855 14.5664 20.1855H16.8444C17.0698 20.1855 17.2107 19.942 17.098 19.7472L8.82308 5.44278C8.71037 5.24795 8.4286 5.24795 8.31589 5.44278L7.09981 7.54494C7.09518 7.55294 7.09518 7.56281 7.09981 7.57081L7.10128 7.57334C7.1106 7.58946 7.09894 7.60961 7.08029 7.60961C7.07163 7.60961 7.06363 7.61422 7.0593 7.62171L0.0396396 19.7616C-0.0730193 19.9565 0.0678714 20.2 0.293265 20.2H10.9633C11.1887 20.2 11.3296 19.9564 11.2169 19.7616L10.1254 17.8749C10.0731 17.7845 9.97646 17.7288 9.87184 17.7288H4.4145C4.3018 17.7288 4.23135 17.607 4.28771 17.5096L8.4417 10.3288C8.49805 10.2314 8.63894 10.2314 8.6953 10.3288L14.3128 20.0394Z" fill="#167779"></path>
    <path d="M10.1282 2.30989C10.0759 2.40032 10.0759 2.51172 10.1282 2.60214L20.2155 20.0394C20.2678 20.1298 20.3645 20.1855 20.4691 20.1855H22.7412C22.9666 20.1855 23.1075 19.942 22.9948 19.7472L11.7715 0.346077C11.6588 0.151242 11.377 0.151243 11.2643 0.346077L10.1282 2.30989Z" fill="#167779"></path>
</svg>
