<?xml version="1.0" encoding="UTF-8" standalone="no"?>
<svg
   id="Layer_1"
   data-name="Layer 1"
   viewBox="0 0 122.88 97.05"
   version="1.1"
   xmlns="http://www.w3.org/2000/svg"
   xmlns:svg="http://www.w3.org/2000/svg">
  <defs
     id="defs1" />
  <title
     id="title1">planet</title>
  <g
     id="g4"
     transform="matrix(0.93610705,0,0,0.93610705,3.9731118,2.7123614)">
    <path
       style="fill:#001c30;fill-opacity:1;stroke:#000000;stroke-width:0.120712;stroke-opacity:1"
       d="M 23.722614,70.95036 C 23.009165,69.817327 21.318152,66.360986 20.665402,64.701578 17.883374,57.629176 16.989399,50.104266 18.055371,42.732013 20.421592,26.367244 31.5374,12.937202 47.167239,7.5592567 c 2.654536,-0.9133778 6.156802,-1.6888226 9.446642,-2.0916024 1.622448,-0.1986386 7.374107,-0.1973049 8.993037,0.00209 7.932402,0.976968 14.758881,3.5700506 20.811352,7.9053277 5.319928,3.810569 9.503129,8.529164 12.877604,14.52576 l 0.280931,0.499227 -0.524695,0.707892 c -0.708038,0.955253 -3.255245,3.464692 -4.957184,4.883686 -11.281857,9.406266 -31.859709,21.718377 -50.22151,30.048462 -9.095947,4.126503 -15.567021,6.58924 -19.51836,7.428223 -0.218292,0.04635 -0.339738,-0.05311 -0.632442,-0.517957 z"
       id="path2" />
    <path
       style="fill:#001c30;fill-opacity:1;stroke:#000000;stroke-width:0.120712;stroke-opacity:1"
       d="m 58.002068,92.210546 c -7.853883,-0.690752 -14.58254,-3.00243 -20.973922,-7.205741 l -1.116815,-0.734477 2.68607,-0.923169 c 8.868059,-3.047844 18.41025,-7.146593 26.466313,-11.36833 14.792178,-7.751759 26.188154,-15.212024 37.179266,-24.339042 1.19505,-0.992367 2.22065,-1.759444 2.27913,-1.704615 0.17019,0.15959 -0.003,6.635062 -0.21916,8.204115 -1.43165,10.381952 -5.940357,19.253781 -13.346533,26.262107 -6.776387,6.412367 -15.075525,10.310937 -24.685584,11.596203 -1.267884,0.169569 -7.064613,0.318854 -8.268765,0.212949 z"
       id="path3" />
    <path
       style="fill:#ffffff;fill-opacity:1;stroke:#000000;stroke-width:0.120712;stroke-opacity:1"
       d="M 57.700288,97.156356 C 47.961144,96.365595 38.615113,92.738331 31.268916,86.898143 l -1.323297,-1.052014 -0.909873,0.197406 C 28.535315,86.15211 27.256747,86.430243 26.194482,86.661609 20.862953,87.822844 16.149994,88.299736 12.382003,88.05926 9.1334036,87.851931 7.0201696,87.364344 4.9491879,86.344287 2.9976255,85.383047 1.6227966,84.064156 0.7599711,82.325516 0.05458331,80.904121 -0.11086549,80.127734 -0.10177642,78.281667 c 0.006951,-1.41181 0.05719265,-1.817775 0.37591365,-3.037476 C 1.5347708,70.419921 5.0064207,65.188778 11.396437,58.484916 l 1.898501,-1.991747 -0.235728,-1.689966 c -0.332214,-2.38168 -0.36185,-9.389578 -0.04938,-11.67575 1.033831,-7.563897 3.287883,-13.960521 7.035273,-19.964925 7.229714,-11.584099 18.988118,-19.589876 32.404214,-22.0625963 3.252457,-0.59946045 4.8607,-0.73260172 8.811968,-0.72951476 3.957892,0.003092 5.907065,0.18151971 9.249522,0.84670276 5.137873,1.0224891 10.16994,2.8919666 14.604551,5.4257781 1.813406,1.0361288 4.777288,3.0475215 6.28558,4.2656112 1.299815,1.049725 1.364711,1.085872 1.750323,0.974928 0.220252,-0.06337 1.351064,-0.329935 2.512916,-0.59237 8.380933,-1.8930514 15.282003,-2.1378288 19.796753,-0.70218 3.50722,1.115265 5.72912,3.085329 6.71036,5.949802 0.43731,1.276595 0.53572,3.336329 0.23643,4.948029 -0.94814,5.105794 -4.84076,11.230282 -11.43124,17.985489 l -1.88915,1.936365 0.1618,1.204923 c 0.34586,2.575678 0.4739,6.040117 0.31963,8.648414 -0.58385,9.871545 -3.79611,18.771227 -9.55646,26.476555 -6.715902,8.983507 -16.113741,15.260197 -26.989532,18.025937 -4.158042,1.0574 -6.522519,1.354823 -11.157923,1.403538 -1.958551,0.02058 -3.832603,0.01537 -4.164561,-0.01158 z m 8.268765,-4.989976 c 8.536039,-1.055634 16.09464,-4.226313 22.693838,-9.519599 1.573514,-1.262133 5.159584,-4.866784 6.444179,-6.477572 5.20669,-6.528801 8.41712,-14.268077 9.38889,-22.633481 0.1653,-1.423004 0.23103,-7.755629 0.0821,-7.905103 -0.0436,-0.04371 -0.91269,0.620962 -1.93139,1.477044 -7.428782,6.242913 -16.422147,12.607591 -25.14958,17.798561 -2.071859,1.232316 -5.578121,3.235638 -5.663091,3.235638 -0.02843,0 -0.526647,0.274299 -1.107159,0.609556 -0.580511,0.335256 -2.390947,1.323628 -4.02319,2.196383 -8.957079,4.789321 -18.786683,9.062784 -28.431966,12.360922 -1.258159,0.430219 -2.362469,0.824136 -2.454019,0.87537 -0.331613,0.18558 3.598523,2.592417 6.503131,3.982552 4.650411,2.225673 10.716927,3.868888 15.005247,4.064416 0.590837,0.02694 1.10688,0.08347 1.146763,0.125617 0.107866,0.113996 6.308545,-0.04342 7.496297,-0.190304 z M 25.917688,71.229136 C 33.803039,69.197749 51.86519,60.935634 65.848342,52.963779 75.518798,47.450611 82.944069,42.670206 89.863886,37.502522 c 4.426386,-3.305601 8.209521,-6.697389 9.360542,-8.392238 l 0.479163,-0.705556 -0.480629,-0.919583 C 98.526509,26.152624 96.341575,22.905495 95.105508,21.366006 92.908595,18.629814 89.351925,15.262488 86.611911,13.324579 80.466653,8.9782704 73.754256,6.3837704 66.150121,5.4156137 64.057461,5.1491769 58.631039,5.1101997 56.613881,5.3471165 44.489579,6.7711255 33.976917,12.599999 26.711804,21.926689 c -9.831862,12.621791 -11.960859,29.718735 -5.529468,44.4045 1.047152,2.391122 2.674318,5.311324 2.959521,5.311324 0.09416,0 0.893287,-0.18602 1.775831,-0.413377 z"
       id="path4" />
  </g>
</svg>
