<?xml version="1.0" encoding="utf-8" standalone="no" ?><!DOCTYPE svg PUBLIC "-//W3C//DTD SVG 1.1//EN" "http://www.w3.org/Graphics/SVG/1.1/DTD/svg11.dtd"><svg xmlns="http://www.w3.org/2000/svg" width="1200" height="1200" stroke-width="0" shape-rendering="geometricPrecision"><!--This file is Copyright © 2018 Benjie Gillam. All rights reserved.--><g class="ears"><path fill="#468bcc" d="M100 615L25 360 260 25l455 590z" class="seg1"/><path fill="#4ba8ff" d="M25 360L260 25l340 105 115 485z" class="seg2"/><path fill="#468bcc" d="M260 25l340 105L940 25 715 615z" class="seg1"/><path fill="#468bcc" d="M600 130L940 25l235 335-460 255z" class="seg1"/><path fill="#4ba8ff" d="M940 25l235 335-75 255H715z" class="seg2"/><path fill="#468bcc" d="M1175 360l-75 255-500 440 115-440z" class="seg1"/><path fill="#468bcc" d="M1100 615l-500 440-500-440h615z" class="seg1"/><path fill="#468bcc" d="M600 1055L100 615 25 360l690 255z" class="seg1"/><path fill="#468bcc" d="M100 615L25 360l690 255z" class="seg1"/><!--polygon points="25,360 260,25 260,25 600,130 600,130 940,25 940,25 1175,360 1175,360 1100,615 1100,615 600,1055 600,1055 100,615 100,615 25,360" class="heart-outline" /--></g><g class="face"><path fill="#fff" stroke="#082744" stroke-linejoin="round" stroke-width="8" d="M375 740l85 55-135 105z" class="tusk left-tusk"/><path fill="#fff" stroke="#082744" stroke-linejoin="round" stroke-width="8" d="M825 740l-85 55 135 105z" class="tusk right-tusk"/><path fill="#4ba8ff" d="M325 300L490 96h220L600 450z" class="seg2 forehead-left"/><path fill="#468bcc" d="M490 96h220l165 204-275 150z" class="seg1 forehead-top"/><path fill="#166ebf" d="M710 96l165 204v425L600 450z" class="seg3 forehead-right no-stroke"/><path fill="#0b457f" d="M875 300v425L710 835 600 450z" class="seg4 right-eye-area no-stroke"/><path fill="#0c3861" d="M875 725L710 835l-110 295V450z" class="seg5 face-bottom-right no-stroke"/><path fill="#166ebf" d="M710 835v240l-110 55-110-295 110-385z" class="seg3 no-stroke trunk-highlight-right"/><path fill="#4ba8ff" d="M600 1130l-110-55V835L325 725l275-275z" class="seg2 no-stroke trunk-highlight-left"/><path fill="#166ebf" d="M490 835L325 725V300l275 150z" class="seg3 face-bottom-left no-stroke"/><path fill="#468bcc" d="M325 725V300l275 150z" class="seg1 left-eye-area no-stroke"/><path fill="none" stroke="#082744" stroke-linejoin="round" stroke-width="8" d="M490 96h220l165 204v425L710 835v240l-110 55-110-55V835L325 725V300z" class="entire-face stroke-only"/><path fill="#fff" d="M385 415l130 40-130 50z" class="eye left-eye"/><path fill="#fff" d="M815 415l-130 40 130 50z" class="eye right-eye"/></g></svg>