<?xml version="1.0" encoding="UTF-8"?>
<svg width="256px" height="263px" viewBox="0 0 256 263" version="1.1" xmlns="http://www.w3.org/2000/svg" xmlns:xlink="http://www.w3.org/1999/xlink" preserveAspectRatio="xMidYMid">
    <title>supabase</title>
    <defs>
        <linearGradient x1="20.8617445%" y1="20.6868812%" x2="63.4256086%" y2="44.0710077%" id="supabase-linearGradient-1">
            <stop stop-color="#249361" offset="0%"></stop>
            <stop stop-color="#3ECF8E" offset="100%"></stop>
        </linearGradient>
        <linearGradient x1="1.99116498%" y1="-13.1584008%" x2="21.4025077%" y2="34.708062%" id="supabase-linearGradient-2">
            <stop stop-color="#000000" offset="0%"></stop>
            <stop stop-color="#000000" stop-opacity="0" offset="100%"></stop>
        </linearGradient>
    </defs>
    <g>
				<path d="M149.601512,258.578826 C142.884085,267.038157 129.263882,262.403261 129.102024,251.601817 L126.735244,93.6176533 L232.963622,93.6176533 C252.204429,93.6176533 262.935398,115.840956 250.971119,130.909887 L149.601512,258.578826 Z" fill="url(#supabase-linearGradient-1)"></path>
				<path d="M149.601512,258.578826 C142.884085,267.038157 129.263882,262.403261 129.102024,251.601817 L126.735244,93.6176533 L232.963622,93.6176533 C252.204429,93.6176533 262.935398,115.840956 250.971119,130.909887 L149.601512,258.578826 Z" fill-opacity="0.2" fill="url(#supabase-linearGradient-2)"></path>
				<path d="M106.399023,4.36908575 C113.11645,-4.09118439 126.736889,0.544432392 126.898746,11.3460249 L127.935901,169.329953 L23.0369844,169.329953 C3.79559007,169.329953 -6.93568494,147.106651 5.02918175,132.037719 L106.399023,4.36908575 Z" fill="#3ECF8E"></path>
		</g>
</svg>
