<svg width="800" height="800" viewBox="0 0 800 800" fill="none" xmlns="http://www.w3.org/2000/svg">
<g clip-path="url(#clip0_112_17)">
<path fill-rule="evenodd" clip-rule="evenodd" d="M67.9739 68.5032C74.278 288.546 97.2991 438.258 108.22 486.25L81.7558 492.273C69.8751 440.063 45.2902 278.111 40.1589 42.0743L41.5181 42.0447L41.5476 40.6883C277.584 45.8196 439.536 70.4046 491.746 82.2852L485.724 108.75C437.731 97.8285 288.018 74.8073 67.9739 68.5032Z" fill="white"/>
<path d="M67.9739 68.5032L69.0102 32.3302L30.7033 31.2327L31.8008 69.5396L67.9739 68.5032ZM108.22 486.25L116.25 521.536L151.535 513.507L143.506 478.221L108.22 486.25ZM81.7558 492.273L46.4699 500.302L54.4995 535.588L89.7853 527.558L81.7558 492.273ZM40.1589 42.0743L39.3726 5.89492L3.19305 6.68125L3.97957 42.8608L40.1589 42.0743ZM41.5181 42.0447L42.3045 78.224L76.9443 77.4712L77.6975 42.8314L41.5181 42.0447ZM41.5476 40.6883L42.3341 4.50902L6.15501 3.72252L5.36832 39.9017L41.5476 40.6883ZM491.746 82.2852L527.032 90.3148L535.061 55.0289L499.776 46.9994L491.746 82.2852ZM485.724 108.75L477.694 144.035L512.98 152.065L521.01 116.779L485.724 108.75ZM31.8008 69.5396C38.1498 291.145 61.3402 443.33 72.9343 494.28L143.506 478.221C133.258 433.186 110.406 285.947 104.147 67.4669L31.8008 69.5396ZM100.191 450.965L73.7262 456.987L89.7853 527.558L116.25 521.536L100.191 450.965ZM117.042 484.243C105.852 435.07 81.4335 275.67 76.3382 41.2877L3.97957 42.8608C9.1468 280.552 33.8982 445.056 46.4699 500.302L117.042 484.243ZM40.9452 78.2536L42.3045 78.224L40.7318 5.86538L39.3726 5.89492L40.9452 78.2536ZM5.36832 39.9017L5.33882 41.258L77.6975 42.8314L77.727 41.475L5.36832 39.9017ZM499.776 46.9994C444.529 34.4277 280.025 9.67622 42.3341 4.50902L40.7611 76.8677C275.143 81.9629 434.544 106.381 483.716 117.571L499.776 46.9994ZM521.01 116.779L527.032 90.3148L456.46 74.2556L450.438 100.72L521.01 116.779ZM66.9375 104.676C285.419 110.936 432.659 133.787 477.694 144.035L493.753 73.4637C442.803 61.8696 290.617 38.679 69.0102 32.3302L66.9375 104.676Z" fill="white"/>
<path d="M422.589 501.244C411.288 508.494 404.495 537.463 357.466 501.244C314.818 468.399 315.989 399.344 350.213 365.119C405.869 309.463 500.443 290.457 584.885 374.9C669.328 459.343 672.846 572.253 584.885 660.214C496.924 748.175 321.002 796.154 185.062 660.214C49.1221 524.274 80.5161 338.98 198.224 221.272C315.932 103.565 510.413 40.5004 698.766 180.647C724.59 199.861 724.563 199.888 742.594 220.748" stroke="white" stroke-width="99.5167"/>
<path d="M441.014 458.87C459.308 477.164 459.254 506.521 441.334 524.441C423.414 542.361 394.057 542.416 375.763 524.121C357.468 505.827 357.523 476.47 375.443 458.55C393.363 440.63 422.719 440.576 441.014 458.87Z" fill="white" stroke="white" stroke-width="45.2348"/>
<path d="M741.489 291.533C711.213 260.04 671.51 214.18 643.153 198.672C675.899 179.381 750.221 152.218 779.899 187.565C816.996 231.75 774.29 325.653 741.489 291.533Z" fill="white"/>
</g>
<defs>
<clipPath id="clip0_112_17">
<rect width="800" height="800" fill="white"/>
</clipPath>
</defs>
</svg>
