<svg xmlns="http://www.w3.org/2000/svg" width="32" height="32" fill="none" viewBox="0 0 32 32">
  <path stroke="#EA1763" stroke-width="2" d="M24.423 12.741c-.271.377-.354.8-.39 1.166-.033.351-.033.785-.033 1.27v5.646c0 .485 0 .919.034 1.27.035.366.118.79.389 1.166.304.422.715.608 1.116.683.311.058.678.058 1.002.058h.919c.324 0 .69 0 1.002-.058.402-.075.812-.26 1.116-.683.271-.377.354-.8.39-1.166.033-.351.033-.785.033-1.27v-5.646c0-.485 0-.919-.034-1.27-.035-.366-.118-.79-.389-1.166-.304-.422-.715-.608-1.116-.683-.311-.059-.678-.058-1.002-.058h-.92c-.324 0-.69 0-1.002.058-.402.075-.812.26-1.116.683ZM3 10.615c0-1.112.002-1.859.067-2.416.063-.541.172-.75.274-.868.086-.098.213-.195.618-.258C4.409 7.003 5.025 7 6 7h10c.975 0 1.59.003 2.041.073.405.063.532.16.617.258.103.119.212.327.275.868.065.557.067 1.304.067 2.416V20H3v-9.385ZM2.667 20C1.747 20 1 20.746 1 21.667A2.333 2.333 0 0 0 3.333 24h15.334A2.333 2.333 0 0 0 21 21.667c0-.92-.746-1.667-1.667-1.667H2.667Z"/>
</svg>
