<svg xmlns="http://www.w3.org/2000/svg" viewBox="0 0 550 687.5"><title>ckeck-mark-circle</title><path d="M493.3 133.7l-6.2-9.5-226.8 192.2L175.6 209l-60 47.4 85.5 108.4-.6.4 14.5 17.2 12.7 16.1 6.3 7.8.7-.5L245 418l224.5-189.7c3.6 15.2 5.4 30.8 5.4 46.7 0 53.4-20.8 103.7-58.6 141.4-37.8 37.8-88 58.6-141.4 58.6s-103.7-20.8-141.4-58.6C95.8 378.7 75 328.4 75 275s20.8-103.7 58.6-141.4C171.3 95.8 221.6 75 275 75c39.2 0 76.6 11.2 108.6 32l47.6-39.9c-15.5-11.7-32.3-21.6-50.3-29.6C347.5 22.6 311.9 15 275 15c-69.5 0-134.8 27-183.9 76.1C42 140.2 15 205.5 15 275s27 134.8 76.1 183.9S205.5 535 275 535s134.8-27 183.9-76.1S535 344.5 535 275c0-50.4-14.4-99.2-41.7-141.3z"></path></svg>
