<?xml version="1.0" encoding="utf-8"?>
<!-- Generator: Adobe Illustrator 18.0.0, SVG Export Plug-In . SVG Version: 6.00 Build 0)  -->
<!DOCTYPE svg PUBLIC "-//W3C//DTD SVG 1.1//EN" "http://www.w3.org/Graphics/SVG/1.1/DTD/svg11.dtd">
<svg version="1.1" id="Layer_1" xmlns="http://www.w3.org/2000/svg" xmlns:xlink="http://www.w3.org/1999/xlink" x="0px" y="0px"
	 viewBox="0 0 54 62.3" enable-background="new 0 0 54 62.3" xml:space="preserve">
<g>
	<polygon fill="#FFFFFF" points="0,15.6 27,0 54,15.6 54,46.8 27,62.3 0,46.8 	"/>
	<g>
		<polygon fill="#07582A" points="43.2,42.6 17.5,42.6 17.5,19.9 12.4,19.9 12.4,47.8 27,47.8 27,52.1 		"/>
		<path fill="#6CB433" d="M38.1,28.6c1.1-1.6,1.7-3.5,1.7-5.5c0-5.5-4.5-10-10-10H27V9.7l-14.5,8.5h17.2c2.7,0,4.8,2.2,4.8,4.8
			c0,2.6-2.2,4.8-4.8,4.8h-2.2h-8.4V33h8.4h2.2h4.6c2.6,0,4.8,2.2,4.8,4.8c0,1.2-0.4,2.3-1.2,3.1h5.8c0.3-1,0.5-2,0.5-3.1
			C44.3,33.6,41.7,30,38.1,28.6z"/>
	</g>
</g>
</svg>
