<svg xmlns="http://www.w3.org/2000/svg" width="33" height="32" fill="none" viewBox="0 0 33 32">
  <path stroke="#EA1763" stroke-width="2" d="M20.182 8.593a16 16 0 0 1-.228 15.236"/>
  <path stroke="#EA1763" stroke-linecap="round" stroke-width="2" d="M23 4C18.05 8.913 5.219 15.39 4.08 15.96c-.036.018-.036.062 0 .08C5.22 16.61 18.05 23.087 23 28m2-12h6m-6-7 6-3m-6 16 6 3"/>
  <path stroke="#EA1763" stroke-width="2" d="M19.856 8a16 16 0 0 1 .417 15.231"/>
  <path stroke="#EA1763" stroke-width="2" d="M21.035 19.864a4 4 0 1 1 0-7.728"/>
</svg>
