<?xml version="1.0" encoding="utf-8"?>
<svg width="33" height="33" viewBox="0 0 16 16" xmlns="http://www.w3.org/2000/svg" fill="#EA1763" class="bi bi-ui-checks-grid">
  <path d="M2 10h3a1 1 0 0 1 1 1v3a1 1 0 0 1-1 1H2a1 1 0 0 1-1-1v-3a1 1 0 0 1 1-1zm9-9h3a1 1 0 0 1 1 1v3a1 1 0 0 1-1 1h-3a1 1 0 0 1-1-1V2a1 1 0 0 1 1-1zm0 9a1 1 0 0 0-1 1v3a1 1 0 0 0 1 1h3a1 1 0 0 0 1-1v-3a1 1 0 0 0-1-1h-3zm0-10a2 2 0 0 0-2 2v3a2 2 0 0 0 2 2h3a2 2 0 0 0 2-2V2a2 2 0 0 0-2-2h-3zM2 9a2 2 0 0 0-2 2v3a2 2 0 0 0 2 2h3a2 2 0 0 0 2-2v-3a2 2 0 0 0-2-2H2zm7 2a2 2 0 0 1 2-2h3a2 2 0 0 1 2 2v3a2 2 0 0 1-2 2h-3a2 2 0 0 1-2-2v-3zM0 2a2 2 0 0 1 2-2h3a2 2 0 0 1 2 2v3a2 2 0 0 1-2 2H2a2 2 0 0 1-2-2V2zm5.354.854a.5.5 0 1 0-.708-.708L3 3.793l-.646-.647a.5.5 0 1 0-.708.708l1 1a.5.5 0 0 0 .708 0l2-2z"/>
</svg>