<svg xmlns="http://www.w3.org/2000/svg" width="32" height="32" fill="none" viewBox="0 0 32 32">
  <path stroke="#EA1763" stroke-width="2" d="M4 12c0-3.771 0-5.657 1.172-6.828C6.343 4 8.229 4 12 4h8c3.771 0 5.657 0 6.828 1.172C28 6.343 28 8.229 28 12v8c0 3.771 0 5.657-1.172 6.828C25.657 28 23.771 28 20 28h-8c-3.771 0-5.657 0-6.828-1.172C4 25.657 4 23.771 4 20v-8Z"/>
  <path fill="#EA1763" fill-rule="evenodd" d="m26 19.252-1.131-1.13-.047-.047c-.627-.627-1.167-1.167-1.657-1.542-.526-.4-1.11-.705-1.832-.705-.72 0-1.305.304-1.831.705-.49.375-1.03.915-1.658 1.542l-.046.046-.416.416c-.497.497-.79.787-1.02.957l-.01.007-.006-.01c-.149-.243-.314-.622-.59-1.267l-.51-1.188-.031-.073c-.5-1.168-.92-2.146-1.352-2.85-.453-.735-1.043-1.377-1.97-1.556-.927-.178-1.714.199-2.407.713-.663.493-1.416 1.246-2.314 2.144l-.057.056L6 16.587v2.828l2.53-2.53c.97-.969 1.618-1.614 2.148-2.008.514-.381.721-.377.836-.355.116.022.31.095.645.64.346.563.709 1.403 1.25 2.663l.508 1.188.027.063c.24.56.463 1.08.699 1.464.255.415.65.878 1.316 1.007.666.128 1.205-.156 1.596-.447.362-.268.761-.668 1.193-1.1l.048-.047.416-.417c.687-.686 1.132-1.128 1.503-1.412.348-.265.51-.295.618-.295.108 0 .27.03.619.295.37.284.816.726 1.503 1.412l2.505 2.505.03-.03c.01-.577.01-1.24.01-2.01v-.748Zm-9.784.334.005-.001a.028.028 0 0 1-.005.001Zm.232.044a.053.053 0 0 0 0 .001Z" clip-rule="evenodd"/>
  <circle cx="22" cy="10" r="2" fill="#EA1763"/>
</svg>
