<svg xmlns="http://www.w3.org/2000/svg" width="32" height="32" fill="none" viewBox="0 0 32 32">
  <path fill="#EA1763" d="m5.333 8.667-.707.707-.707-.707.707-.708.707.708ZM12 24.333a1 1 0 0 1 0-2v2Zm-.707-8.293L4.626 9.374l1.415-1.415 6.666 6.667-1.414 1.414ZM4.626 7.96l6.667-6.667 1.414 1.414-6.666 6.667-1.415-1.415Zm.707-.293h14v2h-14v-2Zm14 16.666H12v-2h7.334v2ZM27.668 16a8.333 8.333 0 0 1-8.334 8.333v-2A6.333 6.333 0 0 0 25.668 16h2Zm-8.334-8.333A8.333 8.333 0 0 1 27.668 16h-2a6.333 6.333 0 0 0-6.334-6.333v-2Z"/>
</svg>
