<?xml version="1.0" encoding="UTF-8"?>
<svg  width="33" height="32" viewBox="0 0 24 24" version="1.1" xmlns="http://www.w3.org/2000/svg" xmlns:xlink="http://www.w3.org/1999/xlink">
    <g stroke="none" stroke-width="1" fill="none" fill-rule="evenodd">
        <g  transform="translate(-1488.000000, 0.000000)">
            <g transform="translate(1488.000000, 0.000000)">
                <path d="M24,0 L24,24 L0,24 L0,0 L24,0 Z M12.5934901,23.257841 L12.5819402,23.2595131 L12.5108777,23.2950439 L12.4918791,23.2987469 L12.4918791,23.2987469 L12.4767152,23.2950439 L12.4056548,23.2595131 C12.3958229,23.2563662 12.3870493,23.2590235 12.3821421,23.2649074 L12.3780323,23.275831 L12.360941,23.7031097 L12.3658947,23.7234994 L12.3769048,23.7357139 L12.4804777,23.8096931 L12.4953491,23.8136134 L12.4953491,23.8136134 L12.5071152,23.8096931 L12.6106902,23.7357139 L12.6232938,23.7196733 L12.6232938,23.7196733 L12.6266527,23.7031097 L12.609561,23.275831 C12.6075724,23.2657013 12.6010112,23.2592993 12.5934901,23.257841 L12.5934901,23.257841 Z M12.8583906,23.1452862 L12.8445485,23.1473072 L12.6598443,23.2396597 L12.6498822,23.2499052 L12.6498822,23.2499052 L12.6471943,23.2611114 L12.6650943,23.6906389 L12.6699349,23.7034178 L12.6699349,23.7034178 L12.678386,23.7104931 L12.8793402,23.8032389 C12.8914285,23.8068999 12.9022333,23.8029875 12.9078286,23.7952264 L12.9118235,23.7811639 L12.8776777,23.1665331 C12.8752882,23.1545897 12.8674102,23.1470016 12.8583906,23.1452862 L12.8583906,23.1452862 Z M12.1430473,23.1473072 C12.1332178,23.1423925 12.1221763,23.1452606 12.1156365,23.1525954 L12.1099173,23.1665331 L12.0757714,23.7811639 C12.0751323,23.7926639 12.0828099,23.8018602 12.0926481,23.8045676 L12.108256,23.8032389 L12.3092106,23.7104931 L12.3186497,23.7024347 L12.3186497,23.7024347 L12.3225043,23.6906389 L12.340401,23.2611114 L12.337245,23.2485176 L12.337245,23.2485176 L12.3277531,23.2396597 L12.1430473,23.1473072 Z" fill-rule="nonzero">

</path>
                <path d="M12.9347,2.87782 L20.1164,6.67404 C21.1818,7.23718 21.1818,8.76316 20.1164,9.32629 L18.8416,10.0002 L20.1164,10.674 C21.1818,11.2372 21.1818,12.7632 20.1164,13.3263 L18.8416,14.0002 L20.1164,14.674 C21.1818,15.2372 21.1818,16.7632 20.1164,17.3263 L12.9347,21.1225 C12.35,21.4316 11.6502,21.4316 11.0654,21.1225 L3.88373,17.3263 C2.81837,16.7632 2.81838,15.2372 3.88373,14.674 L5.15856,14.0002 L3.88373,13.3263 C2.81837,12.7632 2.81838,11.2372 3.88373,10.674 L5.15856,10.0002 L3.88373,9.32629 C2.81838,8.76315 2.81838,7.23718 3.88373,6.67404 L11.0654,2.87782 C11.6502,2.56872 12.35,2.56872 12.9347,2.87782 Z M16.7017,15.1313 L12.9347,17.1225 C12.35,17.4316 11.6502,17.4316 11.0654,17.1225 L7.29841,15.1313 L5.65464,16.0002 L12.0001,19.3543 L18.3455,16.0002 L16.7017,15.1313 Z M16.7017,11.1313 L12.9347,13.1225 C12.4031545,13.4035 11.7764851,13.4290455 11.2275693,13.1991364 L11.0654,13.1225 L7.29841,11.1313 L5.65464,12.0002 L12.0001,15.3543 L18.3455,12.0002 L16.7017,11.1313 Z M12.0001,4.646 L5.65464,8.00017 L12.0001,11.3543 L18.3455,8.00017 L12.0001,4.646 Z" fill="#EA1763" fill-rule="nonzero">

</path>
            </g>
        </g>
    </g>
</svg>