<svg id="Layer_1" data-name="Layer 1" xmlns="http://www.w3.org/2000/svg" viewBox="0 0 350 400.52"><defs><style>.cls-1{fill:#3f5dff;}</style></defs><title>LoopBack-Mark-Frame-(#3f5dff)</title><path class="cls-1" d="M424,153a8,8,0,0,0-4-6.9L253,50.79a8,8,0,0,0-8,0l-166,97a8,8,0,0,0-4,6.95L76,347a8,8,0,0,0,4,6.9l167,95.27a8,8,0,0,0,8,0l166-97a8,8,0,0,0,4-6.95Zm-174.42-3.68,70.11,40,.22,70.36-27.63-15.76-.13-38.55-42.4-24.19-42.19,24.65.12,38.53-9.41,5.48-18.11,11.63L179.93,190ZM237.44,227l-19.85,11.57-.07-22.91ZM125,279.79V221.34L170,195l.1,31.88-17.45,10.2.14,26.78,23.26,13.26,106.2-62,.09,31.88L176.23,309Zm125.42,70.93L191,316.8,217.14,300l33.11,18.88,33.42-19.53,27.67,15.78Zm74-42.47-61.69-35.17L290.13,257l34.08,19.4,23.12-13.51-.14-26.78-17.46-10-.1-31.81L375,220.21v58.45Z" transform="translate(-75 -49.74)"/></svg>
