<svg fill="orange" xmlns="http://www.w3.org/2000/svg" xmlns:xlink="http://www.w3.org/1999/xlink" version="1.1" x="0px" y="0px" viewBox="0 0 100 125" enable-background="new 0 0 100 100" xml:space="preserve"><path d="M79.2,29.7c-1.3-1.2-1.8-3.1-1.1-4.7l0.6-1.5c1-2.3-0.3-4.9-2.7-5.6l-1.6-0.4c-1.7-0.5-2.9-2-3-3.8l-0.1-1.6  c-0.1-2.5-2.4-4.3-4.8-3.9L65,8.5c-1.8,0.3-3.5-0.5-4.3-2.1l-0.8-1.4c-1.2-2.2-4-2.8-6-1.4l-1.3,0.9c-1.4,1-3.4,1-4.8,0l-1.3-1  c-2-1.5-4.9-0.8-6.1,1.4l-0.8,1.4c-0.9,1.6-2.6,2.4-4.4,2.1l-1.6-0.3c-2.5-0.4-4.7,1.4-4.9,3.9l-0.1,1.6c-0.1,1.8-1.3,3.3-3,3.8  L24,17.8c-2.4,0.7-3.7,3.3-2.7,5.6l0.6,1.5c0.7,1.6,0.2,3.5-1.1,4.7l-1.2,1.1c-1.9,1.6-1.9,4.6,0,6.2l1.2,1.1  c1.3,1.2,1.8,3.1,1.1,4.7l-0.6,1.5c-1,2.3,0.3,4.9,2.7,5.6l1.6,0.4c1.7,0.5,2.9,2,3,3.8l0.1,1.6c0.1,2.5,2.4,4.3,4.8,3.9l1.6-0.3  c1.8-0.3,3.5,0.5,4.3,2.1l0.8,1.4c1.2,2.2,4,2.8,6,1.4l1.3-0.9c1.4-1,3.4-1,4.8,0l1.3,1c2,1.5,4.9,0.8,6.1-1.4l0.8-1.4  c0.9-1.6,2.6-2.4,4.4-2.1l1.6,0.3c2.5,0.4,4.7-1.4,4.9-3.9l0.1-1.6c0.1-1.8,1.3-3.3,3-3.8l1.6-0.4c2.4-0.7,3.7-3.3,2.7-5.6l-0.6-1.5  c-0.7-1.6-0.2-3.5,1.1-4.7l1.2-1.1c1.9-1.6,1.9-4.6,0-6.2L79.2,29.7z M50,54.1c-11.2,0-20.2-9.1-20.2-20.2  c0-11.2,9.1-20.2,20.2-20.2c11.2,0,20.2,9.1,20.2,20.2C70.2,45,61.2,54.1,50,54.1z M50,19.2c-8.1,0-14.6,6.6-14.6,14.6  S41.9,48.5,50,48.5s14.6-6.6,14.6-14.6S58.1,19.2,50,19.2z M58.9,32.3l-4.1,3.3l1.2,5.1c0.2,0.7-0.4,1.4-1,1.4  c-0.2,0-0.4-0.1-0.6-0.2l-4.5-2.8l-4.4,2.8c-0.2,0.1-0.4,0.2-0.6,0.2c-0.7,0-1.2-0.6-1-1.4l1.2-5.1l-4.1-3.3  c-0.8-0.6-0.3-1.9,0.6-1.9L47,30l2-4.9c0.2-0.5,0.6-0.7,1-0.7c0.4,0,0.8,0.2,1,0.7l2,4.9l5.2,0.4C59.2,30.4,59.7,31.6,58.9,32.3z   M43.8,71c1,0,2.1-0.2,3-0.5L36.5,96.4c-0.3,0.8-1.4,0.9-1.8,0.1l-4.9-8.6c-0.2-0.3-0.5-0.4-0.8-0.3l-9.2,2.9  c-0.8,0.3-1.6-0.5-1.2-1.3l9.8-24.5c1.3,0.6,2.8,1,4.3,1c0.6,0,1.2-0.1,1.8-0.2l0.2,0l0.1,0.2C36.5,68.9,40,71,43.8,71z M81.4,89.5  c0.3,0.8-0.4,1.6-1.2,1.3l-9.2-2.9c-0.3-0.1-0.6,0-0.8,0.3l-4.9,8.6c-0.4,0.7-1.5,0.7-1.8-0.1l-10.4-26c1,0.3,2,0.4,3,0.4  c3.8,0,7.2-2,9-5.3l0.1-0.2l0.2,0c0.6,0.1,1.2,0.2,1.8,0.2c1.6,0,3-0.4,4.4-1L81.4,89.5z"/></svg>