<svg width="300" height="265" viewBox="0 0 300 265" fill="none" xmlns="http://www.w3.org/2000/svg">
<g clip-path="url(#clip0_4_162)">
<path d="M232.359 169.664C232.104 169.225 231.949 168.736 231.905 168.23C231.86 167.725 231.927 167.216 232.1 166.74C232.273 166.263 232.549 165.83 232.908 165.472C233.267 165.113 233.7 164.837 234.177 164.664L233.998 152.338L239.399 155.787L238.74 166.963C238.978 167.783 238.907 168.662 238.54 169.433C238.173 170.204 237.536 170.814 236.749 171.147C235.963 171.48 235.081 171.513 234.272 171.239C233.463 170.966 232.782 170.405 232.359 169.664Z" fill="#A0616A"/>
<path d="M225.849 102.741C224.248 103.024 222.795 103.852 221.737 105.086C220.678 106.319 220.08 107.881 220.045 109.506C219.966 113.114 221.171 114.459 222.873 114.945C226.019 115.843 231.03 134.016 231.03 134.016C231.03 134.016 231.562 150.965 232.42 150.128C233.277 149.291 232.307 151.245 232.567 151.84C232.828 152.436 231.332 153.329 232.754 154.006C234.176 154.683 233.277 160.074 233.277 160.074L239.57 159.625C239.57 159.625 238.525 155.233 239.947 154.958C241.368 154.683 240.722 153.433 240.146 152.485C239.57 151.538 241.165 150.187 240.368 149.739C239.57 149.291 241.817 131.77 241.817 131.77L233.031 105.927C232.287 104.742 231.206 103.805 229.927 103.238C228.647 102.67 227.228 102.497 225.849 102.741Z" fill="#0070C6"/>
<path d="M206.758 103.758L211.285 95.8272H217.401L221.987 104.207L206.758 103.758Z" fill="#0070C6"/>
<path d="M194.583 32.4407C190.966 20.3306 180.747 12.4248 168.4 10.6905C168.264 10.6714 168.135 10.6966 168 10.6879C167.825 10.6345 167.647 10.5934 167.466 10.565C150.486 8.37142 131.95 12.3001 117.197 21.5269C103.055 30.3712 86.8064 35.3616 70.1253 35.2507C69.6073 35.2473 69.0872 35.2585 68.5651 35.2844C55.7277 35.9247 44.3985 45.2653 40.928 57.5509C40.4725 59.1628 41.2662 60.6031 42.5424 61.5166C44.785 63.1221 46.3169 64.2473 49.076 64.8316C53.9993 65.8741 58.9394 66.8328 63.8964 67.7076V47.9712C63.8986 46.1028 64.6421 44.3115 65.9639 42.9903C67.2856 41.6691 69.0777 40.9259 70.947 40.9237H167.795C169.664 40.9259 171.456 41.6691 172.778 42.9903C174.1 44.3115 174.843 46.1028 174.846 47.9712V72.55C176.174 72.1349 177.471 71.6247 178.726 71.0234C183.398 68.7168 187.389 65.2352 190.308 60.9205C195.915 52.7884 197.396 41.8592 194.583 32.4407Z" fill="#F2F2F2"/>
<path d="M153.806 147.944H68.191C66.2154 147.941 64.3213 147.156 62.9243 145.759C61.5273 144.363 60.7414 142.47 60.7392 140.495V107.289C50.3114 104.098 39.3286 103.135 28.5045 104.464C28.3239 104.493 28.1455 104.534 27.9707 104.587C27.8355 104.596 27.7065 104.571 27.5707 104.59C15.2234 106.324 5.00513 114.23 1.38823 126.34C-1.42499 135.758 0.0559379 146.688 5.66296 154.82C8.58181 159.135 12.5733 162.616 17.2453 164.923C23.6671 168.015 30.4263 168.247 37.4353 168.466C58.4797 169.122 79.5444 168.326 100.479 166.084C110.782 164.979 121.042 163.536 131.259 161.753C136.488 160.839 141.7 159.831 146.895 158.731C149.654 158.147 151.186 157.021 153.428 155.416C154.705 154.502 155.498 153.062 155.043 151.45C154.705 150.257 154.291 149.085 153.806 147.944Z" fill="#F2F2F2"/>
<path d="M161.382 138.092H77.3596C75.7378 138.09 74.1831 137.446 73.0364 136.299C71.8896 135.153 71.2446 133.599 71.2427 131.978V53.9279C71.2446 52.3069 71.8896 50.7528 73.0364 49.6066C74.1831 48.4603 75.7378 47.8155 77.3596 47.8137H161.382C163.004 47.8155 164.559 48.4603 165.706 49.6066C166.852 50.7528 167.497 52.3069 167.499 53.9279V131.978C167.497 133.599 166.852 135.153 165.706 136.299C164.559 137.446 163.004 138.09 161.382 138.092Z" fill="#E6E6E6"/>
<path d="M143.698 133.968H81.4865C79.8648 133.966 78.3101 133.321 77.1633 132.175C76.0166 131.029 75.3715 129.475 75.3696 127.854V58.0553C75.3715 56.4343 76.0166 54.8802 77.1633 53.734C78.3101 52.5878 79.8648 51.943 81.4865 51.9411H157.257C158.878 51.943 160.433 52.5878 161.58 53.734C162.727 54.8802 163.372 56.4343 163.373 58.0553V114.301C163.368 119.516 161.293 124.514 157.604 128.201C153.916 131.888 148.915 133.962 143.698 133.968Z" fill="white"/>
<path d="M119.372 120.361C134.514 120.361 146.79 108.091 146.79 92.9546C146.79 77.8187 134.514 65.5486 119.372 65.5486C104.229 65.5486 91.9536 77.8187 91.9536 92.9546C91.9536 108.091 104.229 120.361 119.372 120.361Z" fill="#0070C6"/>
<path d="M130.922 91.5758L121.772 80.4543C121.524 80.1527 121.213 79.9085 120.861 79.7388C120.509 79.569 120.125 79.4778 119.734 79.4713C119.343 79.4648 118.956 79.5433 118.598 79.7013C118.241 79.8593 117.922 80.093 117.664 80.3863L107.88 91.5077C107.408 92.0448 107.169 92.7469 107.216 93.4598C107.262 94.1727 107.589 94.8382 108.126 95.3099C108.663 95.7817 109.365 96.0212 110.078 95.9759C110.791 95.9306 111.457 95.6041 111.93 95.0682L116.992 89.3141V103.743C116.992 104.458 117.277 105.143 117.782 105.649C118.288 106.154 118.974 106.438 119.689 106.438C120.405 106.438 121.09 106.154 121.596 105.649C122.102 105.143 122.386 104.458 122.386 103.743V89.6888L126.756 95.0002C127.21 95.5524 127.865 95.9016 128.577 95.971C129.289 96.0403 129.999 95.8242 130.552 95.3701C131.104 94.916 131.454 94.2611 131.523 93.5495C131.592 92.838 131.376 92.128 130.922 91.5758Z" fill="white"/>
<path d="M237.526 259.829L233.459 259.829L231.524 244.146L237.528 244.146L237.526 259.829Z" fill="#A0616A"/>
<path d="M237.67 264.07L225.161 264.07V263.912C225.161 262.621 225.674 261.383 226.587 260.471C227.5 259.558 228.739 259.045 230.03 259.045L232.315 257.313L236.578 259.046L237.67 259.046L237.67 264.07Z" fill="#2F2E41"/>
<path d="M206.962 259.829L202.895 259.829L200.96 244.146L206.964 244.146L206.962 259.829Z" fill="#A0616A"/>
<path d="M207.106 264.07L194.597 264.07V263.912C194.597 262.621 195.11 261.383 196.023 260.471C196.936 259.558 198.175 259.045 199.466 259.045L201.751 257.313L206.014 259.046L207.106 259.046L207.106 264.07Z" fill="#2F2E41"/>
<path d="M238.824 246.849C240.308 245.88 239.448 245.943 239.448 245.943C239.448 245.943 236.129 219.049 233.605 210.899L230.683 171.211C230.683 171.211 230.498 172.003 230.683 170.079C230.869 168.154 232.217 169.502 230.869 168.154C229.52 166.807 228.621 166.12 229.52 165.115C230.419 164.111 232.899 162.079 231.434 160.848C229.97 159.618 227.087 151.594 227.087 151.594L198.995 151.819L200.119 151.594C200.119 151.594 196.612 150.294 198.218 151.987C199.825 153.681 197.319 157.828 196.421 161.871C195.676 165.22 193.466 166.109 196.421 166.813C199.375 167.518 196.701 169.514 196.701 169.514C196.701 169.514 192.253 190.681 195.624 204.609C195.624 204.609 197.95 239.056 199.127 242.019C200.304 244.981 200.754 243.184 200.304 244.981C199.855 246.778 198.956 243.633 199.855 246.778C200.345 248.421 200.734 250.093 201.018 251.783L207.114 251.334C207.114 251.334 208.529 246.874 207.114 245.703C205.698 244.532 206.675 247.949 208.209 245.342C209.743 242.735 207.945 243.633 207.496 240.039C207.046 236.445 211.17 219.701 208.209 209.428L213.681 180.601L222.368 210.45C222.368 210.45 226.976 246.904 228.473 248.189C229.97 249.474 229.365 246.355 229.97 249.474C230.581 252.626 231.968 251.79 231.929 252.176C231.51 256.297 238.824 252.233 238.824 252.233C238.752 251.185 238.752 250.135 238.824 249.088C238.959 248.126 237.34 247.818 238.824 246.849Z" fill="#2F2E41"/>
<path d="M201.814 160.973C200.016 160.973 195.072 158.539 195.971 157.509C196.87 156.48 196.87 153.063 196.87 152.076C196.87 151.089 200.915 114.697 200.915 114.697L200.608 105.787C200.589 105.253 200.679 104.72 200.871 104.221C201.062 103.722 201.353 103.267 201.724 102.883C202.096 102.499 202.541 102.193 203.033 101.984C203.525 101.775 204.054 101.668 204.589 101.668L208.556 100.32L219.793 99.8707L225.397 101.668C225.952 101.668 226.499 101.81 226.984 102.082C227.469 102.354 227.876 102.745 228.167 103.219C228.457 103.693 228.621 104.233 228.642 104.789C228.664 105.344 228.543 105.896 228.29 106.391C231.263 111.243 232.756 116.857 232.584 122.544C232.455 126.799 230.298 131.996 229.778 136.803C229.733 137.225 229.7 137.644 229.682 138.059C229.677 138.175 228.757 138.752 229.669 138.406C230.581 138.059 229.18 139.282 229.655 140.018C230.131 140.755 231.053 140.304 229.693 141.203C228.333 142.103 231.326 150.793 231.03 151.089C230.131 151.987 228.333 152.436 229.682 153.784C231.03 155.132 232.378 154.234 230.581 156.031C228.783 157.828 223.396 160.973 223.396 160.973L201.814 160.973Z" fill="#3F3D56"/>
<path d="M213.83 94.6536C219.173 94.6536 223.505 90.3242 223.505 84.9837C223.505 79.6431 219.173 75.3138 213.83 75.3138C208.488 75.3138 204.156 79.6431 204.156 84.9837C204.156 90.3242 208.488 94.6536 213.83 94.6536Z" fill="#A0616A"/>
<path d="M154.909 114.986C155.373 114.781 155.876 114.68 156.384 114.691C156.891 114.701 157.39 114.823 157.845 115.047C158.3 115.271 158.701 115.592 159.018 115.987C159.336 116.383 159.563 116.843 159.683 117.336L171.962 118.496L167.945 123.489L156.901 121.621C156.06 121.768 155.194 121.602 154.467 121.154C153.74 120.705 153.202 120.006 152.957 119.188C152.711 118.37 152.774 117.491 153.134 116.716C153.494 115.942 154.125 115.326 154.909 114.986Z" fill="#A0616A"/>
<path d="M213.125 107.788C212.842 106.188 212.013 104.735 210.779 103.677C209.545 102.619 207.982 102.022 206.357 101.986C202.748 101.908 201.402 103.112 200.916 104.813C200.017 107.958 185.545 119.013 185.545 119.013L173.116 117.668C172.369 117.426 172.723 116.745 169.914 117.322C168.529 116.416 167.634 116.569 166.864 116.992L162.261 116.494L162.71 123.683C162.71 123.683 167.638 122.511 168.553 124.581C169.469 126.651 169.259 126.949 171.25 125.48C173.241 124.011 173.048 125.48 173.048 125.48L187.431 129.074L209.937 114.966C211.123 114.223 212.06 113.143 212.628 111.864C213.196 110.585 213.369 109.166 213.125 107.788Z" fill="#0070C6"/>
<path d="M217.587 93.6167L218.22 93.8189C216.238 93.9851 212.705 95.0904 213.051 94.4793C213.397 93.8683 212.089 91.5635 212.728 91.2715C213.391 91.0388 213.983 90.6378 214.445 90.1079C214.849 89.5418 214.84 88.6073 214.233 88.2613C213.645 87.9199 212.916 88.2883 212.332 88.6342C211.743 88.9757 210.656 83.9527 210.934 82.3847C209.294 81.4862 207.307 83.2069 205.464 82.87C204.336 82.6633 203.522 81.7378 203.01 80.6865C203.847 79.8928 204.47 78.9007 204.821 77.8021C204.039 78.1961 203.203 78.4731 202.34 78.6243C202.186 77.8085 202.207 76.9691 202.403 76.1622C202.554 75.5181 202.861 74.9212 203.298 74.4243C203.734 73.9274 204.287 73.5459 204.907 73.3138C205.535 73.1054 206.216 73.1174 206.837 73.3477C207.458 73.578 207.982 74.0129 208.323 74.5808C208.361 73.9692 208.204 73.3613 207.874 72.8446C207.545 72.3279 207.06 71.929 206.489 71.7054C206.905 71.4894 207.366 71.3725 207.835 71.3638C208.305 71.3551 208.769 71.4549 209.194 71.6554C209.618 71.8559 209.99 72.1517 210.281 72.5196C210.572 72.8875 210.774 73.3177 210.871 73.7766C212.901 72.7598 215.23 72.5108 217.429 73.0757C219.605 73.6463 222.49 76.0589 222.49 76.0589C227.399 77.1417 227.165 95.7958 217.587 93.6167Z" fill="#2F2E41"/>
<path d="M268.839 260.215C268.951 260.22 269.061 260.191 269.156 260.131C269.251 260.071 269.325 259.983 269.368 259.88C269.411 259.776 269.422 259.662 269.398 259.553C269.374 259.443 269.317 259.344 269.235 259.268L269.197 259.119L269.212 259.083C269.325 258.817 269.514 258.589 269.756 258.43C269.997 258.271 270.28 258.186 270.57 258.188C270.859 258.189 271.142 258.275 271.382 258.436C271.622 258.597 271.81 258.826 271.921 259.093C272.364 260.159 272.928 261.228 273.066 262.355C273.128 262.854 273.102 263.359 272.99 263.848C274.031 261.58 274.571 259.114 274.574 256.619C274.575 255.992 274.54 255.367 274.47 254.744C274.412 254.234 274.333 253.728 274.23 253.225C273.673 250.496 272.475 247.938 270.737 245.762C269.895 245.303 269.215 244.597 268.787 243.74C268.632 243.432 268.523 243.103 268.462 242.763C268.646 242.277 268.743 241.762 268.748 241.242C268.881 241.041 269.117 240.941 269.262 240.746C269.98 239.772 270.97 239.942 271.487 241.265C272.591 241.822 272.602 242.746 271.924 243.634C271.493 244.199 271.434 244.964 271.056 245.569C271.095 245.619 271.135 245.667 271.174 245.717C271.885 246.631 272.505 247.612 273.025 248.647C272.898 247.488 273.049 246.315 273.465 245.225C273.886 244.21 274.675 243.354 275.371 242.476C275.555 242.24 275.804 242.064 276.088 241.97C276.372 241.876 276.678 241.868 276.966 241.948C277.254 242.027 277.513 242.191 277.708 242.417C277.904 242.643 278.028 242.922 278.065 243.219L278.069 243.258C277.966 243.316 277.865 243.378 277.766 243.443C277.642 243.526 277.546 243.645 277.49 243.783C277.434 243.922 277.422 244.074 277.454 244.22C277.486 244.366 277.562 244.498 277.671 244.6C277.78 244.702 277.917 244.769 278.065 244.792L278.08 244.794C278.043 245.166 277.978 245.535 277.886 245.897C278.778 249.345 276.852 250.6 274.103 250.657C274.042 250.688 273.983 250.719 273.922 250.749C274.444 252.227 274.772 253.768 274.896 255.331C274.967 256.253 274.963 257.179 274.884 258.101L274.889 258.068C275.088 257.044 275.635 256.119 276.437 255.451C277.628 254.472 279.312 254.112 280.597 253.326C280.734 253.238 280.893 253.191 281.055 253.191C281.217 253.19 281.377 253.236 281.514 253.323C281.651 253.41 281.76 253.535 281.829 253.682C281.897 253.829 281.922 253.992 281.901 254.153L281.896 254.188C281.704 254.266 281.518 254.355 281.337 254.457C281.234 254.515 281.133 254.577 281.034 254.642C280.91 254.725 280.813 254.844 280.758 254.982C280.702 255.121 280.69 255.273 280.722 255.419C280.754 255.565 280.83 255.697 280.939 255.799C281.048 255.902 281.185 255.968 281.333 255.991L281.348 255.993L281.379 255.998C281.052 256.78 280.592 257.499 280.021 258.124C279.463 261.134 277.068 261.419 274.506 260.543H274.504C274.223 261.764 273.816 262.953 273.289 264.089H268.947C268.932 264.041 268.918 263.991 268.904 263.943C269.306 263.968 269.709 263.944 270.105 263.872C269.783 263.477 269.461 263.078 269.139 262.683C269.132 262.676 269.125 262.668 269.119 262.66C268.955 262.458 268.79 262.257 268.627 262.055C268.618 261.435 268.689 260.816 268.839 260.215Z" fill="#F2F2F2"/>
<path d="M124.293 264.706L299.465 264.844C299.607 264.844 299.743 264.787 299.843 264.687C299.944 264.587 300 264.451 300 264.309C300 264.167 299.944 264.031 299.843 263.931C299.743 263.83 299.607 263.774 299.465 263.774L124.293 263.636C124.151 263.636 124.015 263.692 123.915 263.792C123.814 263.893 123.758 264.029 123.758 264.171C123.758 264.313 123.814 264.449 123.915 264.549C124.015 264.649 124.151 264.706 124.293 264.706Z" fill="#CACACA"/>
<path d="M115.343 189.727C114.086 189.727 112.857 189.354 111.811 188.656C110.765 187.957 109.951 186.965 109.469 185.803C108.988 184.642 108.862 183.364 109.108 182.131C109.353 180.899 109.958 179.766 110.848 178.877C111.737 177.989 112.87 177.383 114.103 177.138C115.336 176.893 116.615 177.019 117.777 177.5C118.938 177.981 119.931 178.795 120.63 179.841C121.329 180.886 121.701 182.114 121.701 183.371C121.7 185.056 121.029 186.672 119.837 187.863C118.645 189.055 117.029 189.725 115.343 189.727ZM115.343 177.915C114.264 177.915 113.208 178.235 112.31 178.834C111.413 179.434 110.713 180.286 110.3 181.283C109.887 182.28 109.779 183.377 109.989 184.436C110.2 185.494 110.72 186.467 111.483 187.23C112.247 187.993 113.219 188.513 114.278 188.723C115.337 188.934 116.435 188.826 117.433 188.413C118.43 188 119.283 187.3 119.882 186.403C120.482 185.506 120.803 184.451 120.803 183.371C120.801 181.925 120.225 180.538 119.202 179.515C118.178 178.492 116.791 177.916 115.343 177.915Z" fill="#F2F2F2"/>
<path d="M117.832 183.074L115.861 180.677C115.807 180.612 115.74 180.56 115.664 180.523C115.588 180.487 115.506 180.467 115.421 180.466C115.337 180.464 115.254 180.481 115.177 180.515C115.1 180.549 115.031 180.6 114.975 180.663L112.867 183.059C112.766 183.175 112.715 183.326 112.725 183.479C112.736 183.633 112.806 183.775 112.922 183.877C113.037 183.978 113.188 184.03 113.341 184.02C113.494 184.011 113.638 183.941 113.74 183.827L114.831 182.587V185.696C114.831 185.85 114.892 185.998 115.001 186.107C115.11 186.216 115.258 186.277 115.412 186.277C115.566 186.277 115.714 186.216 115.823 186.107C115.932 185.998 115.993 185.85 115.993 185.696V182.667L116.935 183.812C117.032 183.931 117.174 184.006 117.327 184.021C117.48 184.036 117.634 183.99 117.753 183.892C117.872 183.794 117.947 183.653 117.962 183.499C117.977 183.346 117.93 183.193 117.832 183.074Z" fill="#F2F2F2"/>
<path d="M187.709 95.8272C186.452 95.8272 185.222 95.4545 184.177 94.7561C183.131 94.0578 182.316 93.0653 181.835 91.904C181.354 90.7427 181.228 89.4649 181.473 88.2321C181.719 86.9993 182.324 85.8669 183.213 84.9781C184.103 84.0893 185.235 83.484 186.469 83.2388C187.702 82.9935 188.98 83.1194 190.142 83.6004C191.304 84.0814 192.297 84.896 192.996 85.9411C193.694 86.9862 194.067 88.215 194.067 89.4719C194.065 91.1569 193.395 92.7722 192.203 93.9637C191.011 95.1551 189.395 95.8253 187.709 95.8272ZM187.709 84.0152C186.629 84.0152 185.574 84.3352 184.676 84.9348C183.778 85.5344 183.079 86.3866 182.666 87.3837C182.252 88.3808 182.144 89.478 182.355 90.5365C182.566 91.595 183.085 92.5673 183.849 93.3304C184.612 94.0936 185.585 94.6133 186.644 94.8238C187.703 95.0344 188.801 94.9263 189.798 94.5133C190.796 94.1003 191.648 93.4009 192.248 92.5035C192.848 91.6062 193.168 90.5512 193.168 89.4719C193.167 88.0252 192.591 86.6382 191.568 85.6152C190.544 84.5922 189.156 84.0168 187.709 84.0152Z" fill="#F2F2F2"/>
<path d="M190.198 89.1747L188.226 86.778C188.173 86.713 188.106 86.6604 188.03 86.6238C187.954 86.5872 187.871 86.5676 187.787 86.5662C187.703 86.5648 187.619 86.5817 187.542 86.6157C187.465 86.6498 187.397 86.7002 187.341 86.7634L185.232 89.1601C185.132 89.2759 185.081 89.4269 185.091 89.5801C185.101 89.7333 185.172 89.8761 185.287 89.9775C185.403 90.0789 185.553 90.1305 185.707 90.1211C185.86 90.1117 186.003 90.0421 186.105 89.9274L187.196 88.6873V91.7968C187.196 91.9508 187.258 92.0986 187.367 92.2075C187.475 92.3165 187.623 92.3777 187.777 92.3777C187.932 92.3777 188.079 92.3165 188.188 92.2075C188.297 92.0986 188.359 91.9508 188.359 91.7968V88.7681L189.3 89.9127C189.398 90.0317 189.539 90.107 189.693 90.1219C189.846 90.1369 189.999 90.0903 190.118 89.9924C190.237 89.8946 190.313 89.7534 190.328 89.6001C190.343 89.4467 190.296 89.2937 190.198 89.1747Z" fill="#F2F2F2"/>
<path d="M44.3263 90.4359C43.0688 90.4359 41.8396 90.0631 40.794 89.3648C39.7484 88.6665 38.9335 87.6739 38.4522 86.5127C37.971 85.3514 37.8451 84.0735 38.0904 82.8407C38.3358 81.6079 38.9413 80.4755 39.8305 79.5867C40.7197 78.6979 41.8526 78.0926 43.0859 77.8474C44.3193 77.6022 45.5977 77.7281 46.7594 78.2091C47.9212 78.6901 48.9142 79.5047 49.6128 80.5498C50.3115 81.5949 50.6844 82.8236 50.6844 84.0806C50.6824 85.7655 50.012 87.3809 48.82 88.5723C47.6281 89.7638 46.012 90.434 44.3263 90.4359ZM44.3263 78.6239C43.2466 78.6239 42.1911 78.9439 41.2934 79.5435C40.3956 80.1431 39.6959 80.9953 39.2828 81.9924C38.8696 82.9895 38.7615 84.0867 38.9721 85.1452C39.1828 86.2037 39.7027 87.176 40.4661 87.9391C41.2296 88.7022 42.2023 89.2219 43.2613 89.4325C44.3203 89.643 45.4179 89.535 46.4154 89.122C47.413 88.7089 48.2655 88.0096 48.8654 87.1122C49.4652 86.2148 49.7854 85.1598 49.7854 84.0806C49.7838 82.6339 49.2082 81.2469 48.1847 80.2239C47.1613 79.2009 45.7737 78.6255 44.3263 78.6239Z" fill="#F2F2F2"/>
<path d="M46.8153 83.7834L44.8436 81.3867C44.7901 81.3217 44.7231 81.269 44.6472 81.2325C44.5714 81.1959 44.4885 81.1762 44.4043 81.1748C44.3201 81.1734 44.2366 81.1903 44.1596 81.2244C44.0825 81.2584 44.0139 81.3088 43.9582 81.372L41.8497 83.7687C41.7489 83.8846 41.6981 84.0356 41.7083 84.1887C41.7186 84.3419 41.7891 84.4848 41.9044 84.5862C42.0198 84.6875 42.1705 84.7392 42.3238 84.7298C42.4771 84.7204 42.6205 84.6507 42.7225 84.536L43.8135 83.296V86.4054C43.8135 86.5595 43.8747 86.7072 43.9837 86.8162C44.0927 86.9251 44.2405 86.9863 44.3946 86.9863C44.5488 86.9863 44.6966 86.9251 44.8056 86.8162C44.9146 86.7072 44.9758 86.5595 44.9758 86.4054V83.3767L45.9175 84.5214C46.0154 84.6404 46.1566 84.7156 46.31 84.7306C46.4634 84.7455 46.6165 84.6989 46.7355 84.6011C46.8546 84.5032 46.9299 84.3621 46.9448 84.2087C46.9598 84.0554 46.9132 83.9024 46.8153 83.7834Z" fill="#F2F2F2"/>
<path d="M95.1168 12.7106C93.8593 12.7106 92.6301 12.3378 91.5845 11.6395C90.5389 10.9412 89.724 9.94863 89.2428 8.78735C88.7615 7.62607 88.6356 6.34824 88.881 5.11544C89.1263 3.88263 89.7318 2.75023 90.621 1.86142C91.5102 0.972622 92.6431 0.36734 93.8764 0.12212C95.1098 -0.123101 96.3882 0.00274925 97.55 0.483766C98.7117 0.964782 99.7047 1.77936 100.403 2.82448C101.102 3.8696 101.475 5.09833 101.475 6.35529C101.473 8.04023 100.803 9.6556 99.6106 10.847C98.4186 12.0385 96.8025 12.7087 95.1168 12.7106ZM95.1168 0.898569C94.0371 0.898568 92.9817 1.2186 92.0839 1.81819C91.1862 2.41779 90.4865 3.27001 90.0733 4.26709C89.6601 5.26418 89.552 6.36135 89.7626 7.41985C89.9733 8.47835 90.4932 9.45065 91.2567 10.2138C92.0201 10.9769 92.9929 11.4966 94.0518 11.7072C95.1108 11.9177 96.2084 11.8097 97.206 11.3967C98.2035 10.9836 99.0561 10.2842 99.6559 9.38688C100.256 8.48952 100.576 7.43453 100.576 6.35529C100.574 4.90857 99.9987 3.52156 98.9752 2.49857C97.9518 1.47558 96.5642 0.900174 95.1168 0.898569Z" fill="#F2F2F2"/>
<path d="M97.6063 6.05805L95.6346 3.66135C95.5811 3.59634 95.5141 3.54372 95.4382 3.50715C95.3624 3.47057 95.2795 3.45091 95.1953 3.44951C95.1111 3.44812 95.0276 3.46503 94.9506 3.49908C94.8736 3.53312 94.8049 3.58349 94.7492 3.6467L92.6407 6.04339C92.5399 6.15924 92.4891 6.31025 92.4993 6.46342C92.5096 6.61659 92.5801 6.75947 92.6954 6.86085C92.8108 6.96223 92.9616 7.01386 93.1149 7.00446C93.2681 6.99506 93.4115 6.92539 93.5135 6.81068L94.6045 5.57067V8.68008C94.6045 8.83415 94.6657 8.9819 94.7747 9.09085C94.8837 9.19979 95.0315 9.261 95.1857 9.261C95.3398 9.261 95.4876 9.19979 95.5966 9.09085C95.7056 8.9819 95.7668 8.83415 95.7668 8.68008V5.65143L96.7085 6.79604C96.8064 6.91505 96.9476 6.9903 97.101 7.00525C97.2544 7.02019 97.4075 6.97361 97.5265 6.87575C97.6456 6.77789 97.7209 6.63676 97.7358 6.48342C97.7508 6.33007 97.7042 6.17705 97.6063 6.05805Z" fill="#F2F2F2"/>
<path d="M27.2465 137.61C25.9889 137.61 24.7596 137.237 23.714 136.539C22.6684 135.841 21.8534 134.848 21.3722 133.687C20.8909 132.526 20.765 131.248 21.0104 130.015C21.2557 128.782 21.8612 127.65 22.7504 126.761C23.6397 125.872 24.7726 125.267 26.006 125.022C27.2393 124.776 28.5178 124.902 29.6796 125.383C30.8414 125.864 31.8344 126.679 32.533 127.724C33.2316 128.769 33.6045 129.998 33.6045 131.255C33.6026 132.94 32.9321 134.555 31.7402 135.747C30.5482 136.938 28.9321 137.608 27.2465 137.61ZM27.2465 125.798C26.1667 125.798 25.1112 126.118 24.2135 126.718C23.3157 127.317 22.6159 128.169 22.2027 129.166C21.7895 130.164 21.6814 131.261 21.892 132.319C22.1026 133.378 22.6226 134.35 23.386 135.113C24.1495 135.876 25.1222 136.396 26.1812 136.607C27.2402 136.817 28.3378 136.709 29.3354 136.296C30.3329 135.883 31.1856 135.184 31.7855 134.287C32.3853 133.389 32.7055 132.334 32.7056 131.255C32.704 129.808 32.1283 128.421 31.1049 127.398C30.0814 126.375 28.6938 125.8 27.2465 125.798Z" fill="white"/>
<path d="M29.7352 130.958L27.7635 128.561C27.71 128.496 27.643 128.443 27.5672 128.407C27.4913 128.37 27.4084 128.351 27.3242 128.349C27.24 128.348 27.1565 128.365 27.0795 128.399C27.0025 128.433 26.9338 128.483 26.8782 128.546L24.7696 130.943C24.6688 131.059 24.618 131.21 24.6283 131.363C24.6385 131.516 24.709 131.659 24.8243 131.76C24.9397 131.862 25.0905 131.913 25.2438 131.904C25.3971 131.895 25.5404 131.825 25.6425 131.71L26.7334 130.47V133.58C26.7334 133.734 26.7946 133.882 26.9036 133.99C27.0126 134.099 27.1604 134.161 27.3146 134.161C27.4687 134.161 27.6165 134.099 27.7255 133.99C27.8345 133.882 27.8957 133.734 27.8957 133.58V130.551L28.8374 131.696C28.9353 131.815 29.0765 131.89 29.2299 131.905C29.3833 131.92 29.5364 131.873 29.6555 131.775C29.7745 131.678 29.8498 131.536 29.8647 131.383C29.8797 131.23 29.8331 131.077 29.7352 130.958Z" fill="white"/>
<path d="M164.786 31.131C163.528 31.131 162.299 30.7583 161.253 30.06C160.207 29.3617 159.393 28.3691 158.911 27.2078C158.43 26.0465 158.304 24.7686 158.549 23.5358C158.795 22.3029 159.4 21.1705 160.29 20.2817C161.179 19.3929 162.312 18.7876 163.545 18.5423C164.778 18.2971 166.057 18.423 167.219 18.904C168.38 19.3851 169.373 20.1997 170.072 21.2448C170.771 22.29 171.144 23.5187 171.144 24.7757C171.142 26.4607 170.471 28.076 169.279 29.2675C168.087 30.4589 166.471 31.1291 164.786 31.131ZM164.786 19.3188C163.706 19.3188 162.65 19.6388 161.753 20.2384C160.855 20.838 160.155 21.6902 159.742 22.6873C159.329 23.6844 159.22 24.7816 159.431 25.8401C159.642 26.8986 160.162 27.8709 160.925 28.6341C161.689 29.3973 162.661 29.917 163.72 30.1276C164.779 30.3382 165.877 30.2301 166.874 29.8171C167.872 29.4041 168.725 28.7047 169.325 27.8074C169.924 26.91 170.245 25.855 170.245 24.7757C170.243 23.329 169.667 21.942 168.644 20.9189C167.621 19.8959 166.233 19.3204 164.786 19.3188Z" fill="white"/>
<path d="M167.275 24.4785L165.303 22.0818C165.25 22.0168 165.183 21.9642 165.107 21.9276C165.031 21.891 164.948 21.8713 164.864 21.87C164.78 21.8686 164.696 21.8855 164.619 21.9195C164.542 21.9536 164.473 22.0039 164.418 22.0671L162.309 24.4638C162.208 24.5797 162.158 24.7307 162.168 24.8839C162.178 25.037 162.249 25.1799 162.364 25.2813C162.479 25.3827 162.63 25.4343 162.783 25.4249C162.937 25.4155 163.08 25.3458 163.182 25.2311L164.273 23.9911V27.1005C164.273 27.2546 164.334 27.4023 164.443 27.5113C164.552 27.6202 164.7 27.6814 164.854 27.6814C165.008 27.6814 165.156 27.6202 165.265 27.5113C165.374 27.4023 165.435 27.2546 165.435 27.1005V24.0719L166.377 25.2165C166.475 25.3355 166.616 25.4107 166.769 25.4257C166.923 25.4406 167.076 25.3941 167.195 25.2962C167.314 25.1983 167.389 25.0572 167.404 24.9039C167.419 24.7505 167.373 24.5975 167.275 24.4785Z" fill="white"/>
</g>
<defs>
<clipPath id="clip0_4_162">
<rect width="300" height="264.844" fill="white"/>
</clipPath>
</defs>
</svg>
