<svg xmlns="http://www.w3.org/2000/svg" width="32" height="32" fill="none" viewBox="0 0 32 32">
  <ellipse cx="16" cy="16.5" stroke="#EA1763" stroke-width="2" rx="11" ry="11.5"/>
  <path stroke="#EA1763" stroke-width="2" d="M25.037 9.347c-.996 1.108-2.318 2.017-3.857 2.652-1.54.635-3.253.977-4.998 1a13.752 13.752 0 0 1-5.037-.872c-1.566-.595-2.926-1.47-3.969-2.551m17.039 15.077c-.905-1.108-2.106-2.017-3.506-2.652a11.417 11.417 0 0 0-4.543-1 11.49 11.49 0 0 0-4.58.872c-1.424.595-2.66 1.47-3.607 2.551M16 5v23m11-11H5"/>
</svg>
