<svg xmlns="http://www.w3.org/2000/svg" width="32" height="32" fill="none" viewBox="0 0 32 32">
  <path stroke="#EA1763" stroke-linecap="round" stroke-width="2" d="m9 12 6.193 6.636A3 3 0 0 1 16 20.683V24M9 12h4.2M9 12v4.5"/>
  <path stroke="#EA1763" stroke-linecap="round" stroke-width="2" d="m23 12-6.162 6.401a3 3 0 0 0-.838 2.08V28m7-16h-4.2m4.2 0v4.364"/>
  <path stroke="#EA1763" stroke-linecap="round" stroke-width="2" d="M21.056 27H23.2c1.68 0 2.52 0 3.162-.327a3 3 0 0 0 1.311-1.311C28 24.72 28 23.88 28 22.2V9.8c0-1.68 0-2.52-.327-3.162a3 3 0 0 0-1.311-1.311C25.72 5 24.88 5 23.2 5H7.8c-1.68 0-2.52 0-3.162.327a3 3 0 0 0-1.311 1.311C3 7.28 3 8.12 3 9.8v12.4c0 1.68 0 2.52.327 3.162a3 3 0 0 0 1.311 1.311C5.28 27 6.12 27 7.8 27h2.144"/>
</svg>
