<svg xmlns="http://www.w3.org/2000/svg" width="33" height="32" fill="none" viewBox="0 0 33 32">
  <path fill="#EA1763" d="m13.158 26.447.316.949-.316-.949Zm7-2.333.316.949-.316-.95Zm6.716-14.488.707.707-.707-.707Zm-14.667 6.081-.707.707.707-.707Zm-6.08-6.08.706-.708-.707.707Zm.706-3.294h19.334v-2H6.833v2Zm0 2.586V6.333h-2V8.92h2Zm6.081 6.08-6.08-6.08-1.415 1.414 6.08 6.081L12.915 15ZM11.5 16.415v9.559h2v-9.559h-2Zm0 9.559a1.5 1.5 0 0 0 1.974 1.423l-.632-1.898a.5.5 0 0 1 .658.475h-2Zm1.974 1.423 7-2.333-.632-1.898-7 2.334.632 1.897Zm7-2.333A1.5 1.5 0 0 0 21.5 23.64h-2a.5.5 0 0 1 .342-.475l.632 1.898ZM21.5 23.64v-7.226h-2v7.226h2Zm4.667-14.721-6.081 6.08 1.414 1.415 6.08-6.08-1.413-1.415Zm0-2.586V8.92h2V6.333h-2Zm1.414 4a2 2 0 0 0 .586-1.414h-2l1.414 1.414ZM21.5 16.414 20.086 15a2 2 0 0 0-.586 1.414h2Zm-10 0h2A2 2 0 0 0 12.914 15L11.5 16.414ZM4.833 8.92a2 2 0 0 0 .586 1.414L6.833 8.92h-2Zm21.334-2.586h2a2 2 0 0 0-2-2v2Zm-19.334-2a2 2 0 0 0-2 2h2v-2Z"/>
</svg>
