<svg xmlns="http://www.w3.org/2000/svg" viewBox="0 0 1192.999 672.391">
  <defs>
    <style>
      .cls-1, .cls-2 {
        fill: #d6e7e9;
        stroke: #11abb3;
      }

      .cls-1 {
        stroke-width: 4px;
      }

      .cls-2 {
        stroke-width: 3px;
      }

      .cls-3 {
        fill: #11abb3;
      }

      .cls-4 {
        stroke: none;
      }

      .cls-5 {
        fill: none;
      }
    </style>
  </defs>
  <g id="Groupe_175" data-name="Groupe 175" transform="translate(-19176.036 4102)">
    <g id="tour_écran" data-name="tour écran" class="cls-1" transform="translate(19230.723 -4102)">
      <path class="cls-4" d="M20,0H1065.9a20,20,0,0,1,20,20V640.6a0,0,0,0,1,0,0H0a0,0,0,0,1,0,0V20A20,20,0,0,1,20,0Z"/>
      <path class="cls-5" d="M20,2H1065.9a18,18,0,0,1,18,18V636.6a2,2,0,0,1-2,2H4a2,2,0,0,1-2-2V20A18,18,0,0,1,20,2Z"/>
    </g>
    <path id="ecran" d="M283.25,459.51H1322.632v594.645H283.25Z" transform="translate(18969.254 -4538.353)"/>
    <path id="clavier" class="cls-2" d="M158.11,1023.39h1190v8.96c0,11.772-18.658,21.314-41.678,21.314H199.788c-23.02,0-41.678-9.542-41.678-21.314Z" transform="translate(19019.426 -4484.773)"/>
    <path id="bouton" class="cls-3" d="M677.57,1023.39h165.4c0,7.194-10.05,13.027-22.432,13.027H700c-12.393,0-22.432-5.833-22.432-13.027Z" transform="translate(19013.797 -4484.773)"/>
  </g>
</svg>
