<svg id="illustration_react_3" xmlns="http://www.w3.org/2000/svg" xmlns:xlink="http://www.w3.org/1999/xlink" viewBox="0 0 489.383 432.137">
  <defs>
    <style>
      .cls-1 {
        fill: #11abb3;
      }

      .cls-2 {
        fill: #9ed5da;
      }

      .cls-3 {
        fill: rgba(0,0,0,0);
        stroke: #000;
      }

      .cls-4 {
        fill: #0dacb4;
      }

      .cls-5 {
        fill: #f0a526;
      }

      .cls-6 {
        fill: url(#linear-gradient);
      }

      .cls-7 {
        fill: #cba3e0;
      }

      .cls-8 {
        fill: #d0abe3;
      }
    </style>
    <linearGradient id="linear-gradient" x1="0.775" y1="0.36" x2="0.99" y2="0.15" gradientUnits="objectBoundingBox">
      <stop offset="0" stop-color="#f0c070"/>
      <stop offset="1" stop-color="#f0c070" stop-opacity="0.31"/>
    </linearGradient>
  </defs>
  <g id="Groupe_103" data-name="Groupe 103">
    <g id="Groupe_77" data-name="Groupe 77" transform="translate(337.468 358.602)">
      <g id="Groupe_72" data-name="Groupe 72" transform="translate(0)">
        <path id="Tracé_107" data-name="Tracé 107" class="cls-1" d="M173.368,446.143H162.828V436.75l-11.768,1.4v7.989H132.921v-7.677l-11.768.936v7.447H114.53l3.925,58.739,53.442,4.7Z" transform="translate(-114.53 -436.75)"/>
      </g>
      <g id="Groupe_73" data-name="Groupe 73" transform="translate(57.522 2.2)">
        <path id="Tracé_108" data-name="Tracé 108" class="cls-2" d="M66.37,510.765l36.295-7.2,4.161-55.373-7.07-.394.276-7.168-12.743-1.2-.276,7.7L67.687,446.6Z" transform="translate(-66.37 -439.43)"/>
      </g>
      <g id="Groupe_74" data-name="Groupe 74" transform="translate(48.176)">
        <path id="Tracé_109" data-name="Tracé 109" class="cls-2" d="M109,446.143h10.662l4.494.131V438.45L109,436.75Z" transform="translate(-109 -436.75)"/>
      </g>
      <g id="Groupe_75" data-name="Groupe 75" transform="translate(18.407 1.757)">
        <path id="Tracé_110" data-name="Tracé 110" class="cls-2" d="M147.16,446.526h13.913v-6.749l-13.913-.887Z" transform="translate(-147.16 -438.89)"/>
      </g>
      <g id="Groupe_76" data-name="Groupe 76" transform="translate(67.429 2.2)">
        <path id="Tracé_111" data-name="Tracé 111" class="cls-1" d="M101.223,447.132,90.3,446.885V440.4l11.1-.969Z" transform="translate(-90.3 -439.43)"/>
      </g>
    </g>
    <g id="Groupe_87" data-name="Groupe 87" transform="translate(99.001)">
      <g id="Groupe_79" data-name="Groupe 79" transform="translate(390.382)">
        <g id="Groupe_78" data-name="Groupe 78" transform="translate(0)">
          <path id="Tracé_112" data-name="Tracé 112" class="cls-3"/>
        </g>
      </g>
      <g id="Groupe_80" data-name="Groupe 80" transform="translate(131.85 237.88)">
        <path id="Tracé_113" data-name="Tracé 113" class="cls-2" d="M231.01,471.948l6.428-176.8,35.636,4.6.049-10.025,17.578,2.463-.528,9.713,11.63,1.388-8.972,162.473Z" transform="translate(-231.01 -289.72)"/>
      </g>
      <g id="Groupe_81" data-name="Groupe 81" transform="translate(0 236.558)">
        <path id="Tracé_114" data-name="Tracé 114" class="cls-4" d="M448.489,294.859l-15.506,1.872-.057-8.621-17.676,2.242v8.1l-21.674,2.225.187-7.956-16.156,1.79.455,8.137-9.11.985-.74,102.831-7.143.813v-7.16L347.277,402.1v7.652l-18.895,2.217.1-8.2L314.745,405.8l.382,8.268-4.917.5,2.056,51.144L442.06,471.66Z" transform="translate(-310.21 -288.11)"/>
      </g>
      <g id="Groupe_82" data-name="Groupe 82" transform="translate(160.985 237.88)">
        <path id="Tracé_115" data-name="Tracé 115" class="cls-4" d="M279.232,299.754l-12.962-1.642.471-7.5,12.532-.887Z" transform="translate(-266.27 -289.72)"/>
      </g>
      <g id="Groupe_83" data-name="Groupe 83" transform="translate(122.716 236.558)">
        <path id="Tracé_116" data-name="Tracé 116" class="cls-2" d="M307.623,296.731l15.506-1.872,1.715.222.439-5.534L307.59,288.11Z" transform="translate(-307.59 -288.11)"/>
      </g>
      <g id="Groupe_84" data-name="Groupe 84" transform="translate(83.268 241.206)">
        <path id="Tracé_117" data-name="Tracé 117" class="cls-2" d="M358.85,301.759l15.482-1.618v-5.953l-15.262-.419Z" transform="translate(-358.85 -293.77)"/>
      </g>
      <g id="Groupe_85" data-name="Groupe 85" transform="translate(50.858 348.569)">
        <path id="Tracé_118" data-name="Tracé 118" class="cls-2" d="M408.92,431.714l7.152-.846.049-5.813-7.2-.526Z" transform="translate(-408.92 -424.53)"/>
      </g>
      <g id="Groupe_86" data-name="Groupe 86" transform="translate(18.139 352.329)">
        <path id="Tracé_119" data-name="Tracé 119" class="cls-2" d="M444.31,437.3l11.028-1.232.13-6.059-11.012-.9Z" transform="translate(-444.31 -429.11)"/>
      </g>
    </g>
    <g id="Groupe_94" data-name="Groupe 94">
      <g id="Groupe_88" data-name="Groupe 88" transform="translate(107.031 132.028)">
        <path id="Tracé_120" data-name="Tracé 120" class="cls-5" d="M419.843,160.8l40.447,2.086L456.4,182.673,452.5,199.752l-6.534-1.059-.553,6.6L431.8,202.716l3.056-8.359,3.332-9.467L433.74,191.4l-6.745,7.866.325-3.03L416.08,194.07l5.981-14.1v-8.359l-1.252-4.672Z" transform="translate(-416.08 -160.8)"/>
      </g>
      <g id="Groupe_89" data-name="Groupe 89" transform="translate(98.278 165.002)">
        <path id="Tracé_121" data-name="Tracé 121" class="cls-2" d="M413.518,260.332,410.6,206.371l7.786,1.076V200.96l12.231,2.463-.553,5.427,18.489,3.629.691-6.6,13.344,2.274-.829,6.577,6.258.862-3.2,48.673Z" transform="translate(-410.6 -200.96)"/>
      </g>
      <g id="Groupe_90" data-name="Groupe 90" transform="translate(66.583 165.002)">
        <path id="Tracé_122" data-name="Tracé 122" class="cls-4" d="M453.851,207.447l-7.956-1.076,2.918,53.838,51.573,4.056H422.262L414.2,226.282l5.144-3.44-1.8-6.634,4.722-.985,4.169,3.317,14.181-9.221-.553-5.526,13.791-2.833Z" transform="translate(-414.2 -200.96)"/>
      </g>
      <g id="Groupe_91" data-name="Groupe 91" transform="translate(0 8.252)">
        <path id="Tracé_123" data-name="Tracé 123" class="cls-6" d="M407.7,103.808,406,123.4l3.836,12.431,5.112,10.92,10.646,13.367,9.793,7.537,13.417,8.1,8.24,6.585,9.143,11.331q5.864,10.6,7.339,13.252a.476.476,0,0,0,.772.09c.918-1.035,2.926-3.292,3.771-4.237a7.9,7.9,0,0,0,1.325-2.077c.406-.92,1.04-2.373,1.43-3.251a6.1,6.1,0,0,0,.488-2.841c-.065-.961-.163-2.291-.228-3.235a12.511,12.511,0,0,0-.6-3.03c-.6-1.773-1.633-4.844-2.162-6.429a21.4,21.4,0,0,0-2.227-4.647q-1.365-2.143-6.843-10.707-6.156-8.929-7.688-11.158a12.871,12.871,0,0,1-1.764-3.752c-.325-1.166-.8-2.874-1.154-4.1a7.452,7.452,0,0,1-.138-3.49c.374-1.888,1.357-6.872,1.788-9.032a.406.406,0,0,1,.488-.328q3.791.764,18.927,3.834,15.067,1.392,18.838,1.741l4.795.107c4.145-.205,14.563-.706,18.805-.911a2.945,2.945,0,0,1,2.779,1.659c3.064,6.322,11.751,24.246,14.9,30.741a2.96,2.96,0,0,1,.252,1.79c-.471,2.783-1.707,10-2.17,12.735a5.375,5.375,0,0,0,.122,2.332c.447,1.56.569,2.012.8,2.808a49.993,49.993,0,0,0,3.836,9.615c.333.649-.341-.64.179.353a8.991,8.991,0,0,0,4.519,4.122c1.178.476,3.633,1.486,5.29,2.168a.52.52,0,0,0,.707-.386c1.682-8.728,6.388-33.073,8.021-41.5a6.264,6.264,0,0,0-.609-4.089c-5.567-10.485-21.244-40.044-26.81-50.537a4.833,4.833,0,0,0-3.064-2.414L484.529,97.157a53.838,53.838,0,0,1-9.346-3.3c-2.137-.985-4.8-2.217-7.135-3.284a32.9,32.9,0,0,1-6.631-4.081q-3.694-2.931-18.472-14.656l-58-61.786V76.606Z" transform="translate(-384.943 -10.05)"/>
      </g>
      <g id="Groupe_93" data-name="Groupe 93" transform="translate(489.383)">
        <g id="Groupe_92" data-name="Groupe 92" transform="translate(0)">
          <path id="Tracé_124" data-name="Tracé 124" class="cls-3"/>
        </g>
      </g>
    </g>
    <g id="Groupe_96" data-name="Groupe 96" transform="translate(489.383)">
      <g id="Groupe_95" data-name="Groupe 95" transform="translate(0)">
        <path id="Tracé_125" data-name="Tracé 125" class="cls-3"/>
      </g>
    </g>
    <g id="Groupe_97" data-name="Groupe 97" transform="translate(177.621 299.321)">
      <path id="Tracé_126" data-name="Tracé 126" class="cls-2" d="M370.353,366.356l-57.563,3.054,57.563-4.861Z" transform="translate(-312.79 -364.55)"/>
    </g>
    <g id="Groupe_98" data-name="Groupe 98" transform="translate(233.314 349.776)">
      <path id="Tracé_127" data-name="Tracé 127" class="cls-4" d="M254.04,426l49.614,2.061-49.614-.394Z" transform="translate(-254.04 -426)"/>
    </g>
    <g id="Groupe_99" data-name="Groupe 99" transform="translate(394.949 416.783)">
      <path id="Tracé_128" data-name="Tracé 128" class="cls-7" d="M72.977,515.689,36.65,522.964l64.649-6.651-27.721-8.7Z" transform="translate(-36.65 -507.61)"/>
    </g>
    <g id="Groupe_100" data-name="Groupe 100" transform="translate(230.941 405.699)">
      <path id="Tracé_129" data-name="Tracé 129" class="cls-8" d="M256.93,502.329l-61.74,6.191L295,503.306l-37.635-9.2Z" transform="translate(-195.19 -494.11)"/>
    </g>
    <g id="Groupe_101" data-name="Groupe 101" transform="translate(77.546 409.706)">
      <path id="Tracé_130" data-name="Tracé 130" class="cls-8" d="M341.594,503.284l129.81,6.109L318.01,503.736l23.348-4.746Z" transform="translate(-318.01 -498.99)"/>
    </g>
    <g id="Groupe_102" data-name="Groupe 102" transform="translate(74.661 223.585)">
      <path id="Tracé_131" data-name="Tracé 131" class="cls-2" d="M504.194,272.983l-26.534,4,26.51-4.672Z" transform="translate(-477.66 -272.31)"/>
    </g>
  </g>
</svg>
