<svg width="80" height="80" viewBox="0 0 80 80" fill="none" xmlns="http://www.w3.org/2000/svg">
<g clip-path="url(#clip0_136_314)">
<path d="M29.6374 1.25435L1.271 50.385L50.4016 78.7514L78.768 29.6208L29.6374 1.25435Z" fill="#00023B"/>
<path opacity="0.4" d="M50.687 79.5725L0.488525 50.626L29.4351 0.427481L79.6336 29.4351L50.687 79.5725ZM2.13738 50.1374L50.1984 77.9237L77.9847 29.8626L29.9236 2.07634L2.13738 50.1374Z" fill="#EA1763"/>
<path d="M50.7234 -0.0327038L-0.0883789 29.3043L29.2487 80.1161L80.0604 50.779L50.7234 -0.0327038Z" fill="#00023B"/>
<path opacity="0.7" d="M29.2519 80L0 29.313L50.7481 0L80.0611 50.7481L29.2519 80ZM2.50382 29.9847L29.9847 77.5573L77.5573 50.0763L50.0763 2.50382L2.50382 29.9847Z" fill="#EA1763"/>
<path d="M68.3969 11.6031H11.6641V68.3359H68.3969V11.6031Z" fill="#00023B"/>
<path d="M69.9237 69.9237H10.1375V10.0763H69.9237V69.9237ZM13.1909 66.8702H66.8703V13.1298H13.1909V66.8702Z" fill="#EA1763"/>
<path d="M36.0306 52.9466L31.939 41.2214H31.2062H23.7558V52.9466H20.3359V23.5115H31.6336C33.8321 23.5115 35.481 23.8779 36.5802 24.6107C37.6795 25.3435 38.4123 26.3206 38.7176 27.542C39.023 28.7634 39.2062 30.3511 39.2062 32.3053C39.2062 34.4427 38.9619 36.2137 38.4123 37.6183C37.9237 39.0229 36.8245 40 35.1756 40.5496L39.6947 52.9466H36.0306ZM34.0153 37.6183C34.7482 37.1908 35.2367 36.5802 35.481 35.7863C35.7253 34.9924 35.8474 33.8321 35.8474 32.3664C35.8474 30.8397 35.7253 29.7405 35.542 28.9466C35.3588 28.1527 34.8703 27.6031 34.1375 27.1756C33.4046 26.7481 32.3054 26.5649 30.7787 26.5649H23.7558V38.229H30.5344C32.0611 38.229 33.2214 38.0458 34.0153 37.6183Z" fill="white"/>
<path d="M45.3741 51.9084C44.397 50.9924 43.8474 49.3435 43.8474 46.9008C43.8474 45.2519 44.0306 43.9695 44.397 43.0534C44.7634 42.1374 45.3741 41.4656 46.2291 41.0382C47.084 40.6107 48.3054 40.4275 49.8932 40.4275C50.6871 40.4275 53.0077 40.4885 56.855 40.6107V39.145C56.855 37.374 56.7329 36.0916 56.4276 35.3588C56.1222 34.626 55.6337 34.1374 54.8398 33.8931C54.107 33.7099 52.8245 33.5878 50.9924 33.5878C50.1986 33.5878 49.1604 33.6489 48.0001 33.7099C46.7787 33.771 45.8016 33.8931 45.0688 34.0153V31.3893C47.0841 30.9618 49.4047 30.7786 52.0306 30.7786C54.2902 30.7786 56.0001 31.0229 57.1604 31.5114C58.2596 32 59.0535 32.855 59.481 34.0153C59.9085 35.1756 60.0917 36.8855 60.0917 39.145V52.8855H57.1604L56.9772 49.8321H56.794C56.3054 51.1756 55.4505 52.0916 54.2902 52.5191C53.1299 52.9466 51.7863 53.1908 50.2596 53.1908C48.0001 53.2519 46.4123 52.8244 45.3741 51.9084ZM54.4123 50.0763C55.1451 49.8321 55.7558 49.3435 56.1222 48.6107C56.6718 47.5114 56.9161 45.9847 56.9161 44.1527V42.9313H50.8092C49.7711 42.9313 48.9772 43.0534 48.4886 43.2366C48.0001 43.4198 47.6337 43.7863 47.4505 44.3359C47.2673 44.8855 47.1451 45.6794 47.1451 46.7786C47.1451 47.8779 47.2673 48.6718 47.5115 49.1603C47.7558 49.6489 48.1833 50.0153 48.7329 50.2595C49.3436 50.4427 50.2596 50.5649 51.481 50.5649C52.6413 50.4427 53.6184 50.3206 54.4123 50.0763Z" fill="white"/>
</g>
<defs>
<clipPath id="clip0_136_314">
<rect width="80" height="80" fill="white"/>
</clipPath>
</defs>
</svg>
