<?xml version="1.0" standalone="no"?>
<!DOCTYPE svg PUBLIC "-//W3C//DTD SVG 20010904//EN"
 "http://www.w3.org/TR/2001/REC-SVG-20010904/DTD/svg10.dtd">
<svg version="1.0" xmlns="http://www.w3.org/2000/svg"
 width="99.000000pt" height="99.000000pt" viewBox="0 0 99.000000 99.000000"
 preserveAspectRatio="xMidYMid meet">
<metadata>
Created by potrace 1.11, written by Peter Selinger 2001-2013
</metadata>
<g transform="translate(0.000000,99.000000) scale(0.100000,-0.100000)"
fill="#000000" stroke="none">
<path d="M60 495 l0 -435 435 0 435 0 0 435 0 435 -435 0 -435 0 0 -435z m342
265 c20 -6 47 -23 58 -38 19 -24 21 -37 18 -110 -3 -78 -5 -86 -31 -108 l-29
-25 30 -82 c17 -45 33 -90 37 -99 6 -15 2 -18 -23 -18 -29 0 -32 4 -61 86 -17
47 -31 89 -31 95 0 5 -31 9 -70 9 l-70 0 0 -95 0 -95 -30 0 -30 0 0 238 c0
131 3 242 7 245 10 11 184 8 225 -3z m351 -121 c62 -17 70 -39 71 -207 1 -147
1 -147 -22 -150 -17 -3 -25 2 -29 18 -5 20 -6 20 -25 4 -12 -11 -41 -19 -78
-22 -53 -4 -61 -2 -84 21 -22 22 -26 35 -26 80 0 86 18 101 124 106 l86 3 0
37 c0 60 -23 74 -115 69 -72 -3 -75 -2 -75 19 0 17 7 23 33 26 63 8 103 7 140
-4z"/>
<path d="M230 620 l0 -90 84 0 c101 0 111 8 111 90 0 82 -10 90 -111 90 l-84
0 0 -90z"/>
<path d="M638 443 c-19 -5 -33 -53 -23 -83 9 -30 41 -42 86 -35 47 8 69 36 69
87 l0 38 -57 -1 c-32 -1 -66 -3 -75 -6z"/>
</g>
</svg>
