<svg width="2937" height="520" viewBox="0 0 2937 520" fill="none" xmlns="http://www.w3.org/2000/svg">
<path fill-rule="evenodd" clip-rule="evenodd" d="M1846.22 518.145L1915.39 260L1210.12 71.0229L1090.31 518.147" fill="#00023B"/>
<path fill-rule="evenodd" clip-rule="evenodd" d="M1848.01 518.625C1847.74 519.613 1846.73 520.199 1845.74 519.935C1844.75 519.67 1844.17 518.654 1844.43 517.667L1913.12 261.31L1211.43 73.2918L1092.1 518.627C1091.84 519.614 1090.82 520.201 1089.83 519.937C1088.85 519.672 1088.26 518.656 1088.52 517.669L1208.33 70.5446C1208.6 69.5569 1209.61 68.9708 1210.6 69.2354L1915.87 258.212C1916.86 258.477 1917.44 259.492 1917.18 260.48L1848.01 518.626L1848.01 518.625Z" fill="#EA1763" fill-opacity="0.2"/>
<path fill-rule="evenodd" clip-rule="evenodd" d="M1889.82 518.145L1966.97 384.519L1334.64 19.4436L1046.71 518.146" fill="#00023B"/>
<path fill-rule="evenodd" clip-rule="evenodd" d="M1891.42 519.072C1890.91 519.957 1889.78 520.261 1888.89 519.75C1888.01 519.239 1887.7 518.105 1888.21 517.22L1964.44 385.197C1929.5 365.025 1335.32 21.9753 1335.32 21.9753L1048.32 519.073C1047.81 519.958 1046.67 520.262 1045.79 519.751C1044.9 519.24 1044.6 518.107 1045.11 517.222L1333.04 18.5194C1333.55 17.6337 1334.68 17.3304 1335.57 17.8417L1967.89 382.917C1968.78 383.428 1969.08 384.56 1968.57 385.446L1891.42 519.073L1891.42 519.072Z" fill="#EA1763" fill-opacity="0.3"/>
<path fill-rule="evenodd" clip-rule="evenodd" d="M1984.56 518.145L1468.26 1.85107L951.97 518.145" fill="#00023B"/>
<path fill-rule="evenodd" clip-rule="evenodd" d="M1985.87 516.837C1986.59 517.559 1986.59 518.733 1985.87 519.455C1985.15 520.178 1983.97 520.178 1983.25 519.455L1468.27 4.46992L953.282 519.455C952.56 520.178 951.386 520.178 950.664 519.455C949.941 518.733 949.941 517.559 950.664 516.837L1466.96 0.542456C1467.68 -0.180819 1468.85 -0.180819 1469.58 0.542456L1985.87 516.837H1985.87Z" fill="#EA1763" fill-opacity="0.4"/>
<path fill-rule="evenodd" clip-rule="evenodd" d="M1889.82 518.145L1601.89 19.4431L969.563 384.518L1046.71 518.145" fill="#00023B"/>
<path fill-rule="evenodd" clip-rule="evenodd" d="M1891.42 517.221C1891.93 518.106 1891.63 519.239 1890.74 519.75C1889.86 520.261 1888.72 519.958 1888.21 519.073L1601.21 21.9747L972.094 385.197L1048.32 517.22C1048.83 518.105 1048.52 519.238 1047.64 519.749C1046.75 520.26 1045.62 519.956 1045.11 519.071L967.961 385.445C967.449 384.559 967.753 383.427 968.638 382.915L1600.97 17.8402C1601.85 17.3289 1602.98 17.6322 1603.49 18.5179L1891.42 517.22L1891.42 517.221Z" fill="#EA1763" fill-opacity="0.5"/>
<path fill-rule="evenodd" clip-rule="evenodd" d="M1846.22 518.145L1726.41 71.0212L1021.14 259.998L1090.31 518.144" fill="#00023B"/>
<path fill-rule="evenodd" clip-rule="evenodd" d="M1848.01 517.668C1848.27 518.655 1847.69 519.671 1846.7 519.936C1845.71 520.2 1844.69 519.613 1844.43 518.626L1725.1 73.2907L1023.41 261.309L1092.1 517.666C1092.37 518.653 1091.78 519.669 1090.79 519.934C1089.81 520.198 1088.79 519.612 1088.52 518.624L1019.35 260.478C1019.09 259.49 1019.68 258.475 1020.66 258.21L1725.93 69.234C1726.92 68.9693 1727.94 69.5555 1728.2 70.5432L1848.01 517.667L1848.01 517.668Z" fill="#EA1763" fill-opacity="0.7"/>
<path fill-rule="evenodd" clip-rule="evenodd" d="M0 518.207C140.949 233.788 745.099 19.7241 1468.1 19.7241C2191.11 19.7241 2795.25 233.788 2936.21 518.207" fill="url(#paint0_radial_458_539)"/>
<defs>
<radialGradient id="paint0_radial_458_539" cx="0" cy="0" r="1" gradientUnits="userSpaceOnUse" gradientTransform="translate(1398.83 591.493) rotate(-0.163042) scale(1217.82 571.765)">
<stop stop-color="#EA1763" stop-opacity="0.4"/>
<stop offset="1" stop-color="#EA1763" stop-opacity="0"/>
</radialGradient>
</defs>
</svg>
