<svg width="24" height="18" viewBox="0 0 24 18" fill="none" xmlns="http://www.w3.org/2000/svg">
<path d="M19.67 2.01885C19.6639 2.00697 19.6537 1.99767 19.6414 1.9926C18.2117 1.33667 16.7031 0.868945 15.1531 0.601123C15.139 0.598505 15.1245 0.600394 15.1116 0.60652C15.0986 0.612647 15.0879 0.622699 15.081 0.635248C14.8756 1.00811 14.6891 1.39109 14.5223 1.78275C12.8515 1.52913 11.152 1.52913 9.48129 1.78275C9.31336 1.3901 9.12388 1.00702 8.91373 0.635248C8.90652 0.622972 8.89578 0.613151 8.88292 0.607064C8.87005 0.600977 8.85564 0.598907 8.84158 0.601123C7.29147 0.868383 5.78271 1.33614 4.35328 1.99264C4.34104 1.99782 4.33072 2.00668 4.32373 2.01799C1.46514 6.28691 0.682067 10.4509 1.06622 14.5633C1.0673 14.5734 1.07039 14.5831 1.07532 14.592C1.08025 14.6008 1.08691 14.6086 1.0949 14.6148C2.75943 15.8473 4.62123 16.788 6.60084 17.3969C6.61478 17.4011 6.62967 17.4009 6.6435 17.3964C6.65733 17.3919 6.66944 17.3832 6.67821 17.3716C7.10338 16.7931 7.48012 16.1805 7.80459 15.54C7.80905 15.5312 7.8116 15.5216 7.81206 15.5117C7.81253 15.5019 7.8109 15.4921 7.80729 15.4829C7.80368 15.4737 7.79817 15.4654 7.79112 15.4585C7.78406 15.4517 7.77563 15.4463 7.76638 15.443C7.17229 15.2156 6.59714 14.9416 6.04633 14.6235C6.03632 14.6176 6.02792 14.6093 6.02186 14.5994C6.0158 14.5895 6.01228 14.5783 6.01159 14.5667C6.0109 14.5551 6.01308 14.5435 6.01793 14.533C6.02278 14.5224 6.03015 14.5133 6.03939 14.5062C6.15497 14.4196 6.27062 14.3296 6.38098 14.2386C6.39078 14.2305 6.40265 14.2253 6.41524 14.2236C6.42783 14.222 6.44064 14.2238 6.45223 14.229C10.0608 15.8759 13.9676 15.8759 17.5335 14.229C17.5451 14.2235 17.558 14.2214 17.5708 14.2229C17.5836 14.2245 17.5957 14.2296 17.6056 14.2377C17.716 14.3287 17.8316 14.4196 17.9481 14.5062C17.9574 14.5132 17.9648 14.5223 17.9697 14.5328C17.9747 14.5433 17.9769 14.5549 17.9763 14.5665C17.9757 14.5781 17.9723 14.5893 17.9663 14.5993C17.9603 14.6092 17.952 14.6175 17.942 14.6235C17.3924 14.9443 16.8168 15.2181 16.2211 15.4421C16.2119 15.4456 16.2035 15.451 16.1965 15.458C16.1895 15.465 16.184 15.4734 16.1805 15.4827C16.1769 15.4919 16.1754 15.5018 16.1759 15.5117C16.1765 15.5215 16.1791 15.5312 16.1836 15.54C16.5135 16.1769 16.8897 16.7887 17.3092 17.3706C17.3177 17.3825 17.3297 17.3915 17.3436 17.3962C17.3575 17.4009 17.3725 17.4011 17.3865 17.3968C19.3697 16.79 21.2347 15.8492 22.9013 14.6148C22.9095 14.6089 22.9162 14.6013 22.9212 14.5926C22.9261 14.5838 22.9291 14.5741 22.93 14.5641C23.3899 9.80977 22.1601 5.67994 19.67 2.01885ZM8.34351 12.0592C7.25706 12.0592 6.36186 11.0622 6.36186 9.83779C6.36186 8.61334 7.23969 7.61625 8.34351 7.61625C9.45594 7.61625 10.3425 8.622 10.3251 9.83771C10.3251 11.0622 9.44724 12.0592 8.34351 12.0592ZM15.6703 12.0592C14.5838 12.0592 13.6886 11.0622 13.6886 9.83779C13.6886 8.61334 14.5665 7.61625 15.6703 7.61625C16.7828 7.61625 17.6693 8.622 17.6519 9.83771C17.6519 11.0622 16.7828 12.0592 15.6703 12.0592Z" fill="white"/>
</svg>
