<?xml version="1.0" encoding="utf-8"?>
<!-- Generator: Adobe Illustrator 12.0.1, SVG Export Plug-In . SVG Version: 6.00 Build 51448)  -->
<!DOCTYPE svg PUBLIC "-//W3C//DTD SVG 1.0//EN" "http://www.w3.org/TR/2001/REC-SVG-20010904/DTD/svg10.dtd" [
	<!ENTITY ns_svg "http://www.w3.org/2000/svg">
	<!ENTITY ns_xlink "http://www.w3.org/1999/xlink">
]>
<svg  version="1.0" id="Layer_1" xmlns="&ns_svg;" xmlns:xlink="&ns_xlink;" width="436.505" height="152.503"
	 viewBox="0 0 436.505 152.503" overflow="visible" enable-background="new 0 0 436.505 152.503" xml:space="preserve">
<g>
	<g>
		<path fill="#092E20" d="M51.464,0h23.872v110.496c-12.246,2.325-21.237,3.255-31.002,3.255C15.191,113.75,0,100.576,0,75.308
			c0-24.337,16.122-40.147,41.078-40.147c3.875,0,6.82,0.309,10.386,1.239V0z M51.464,55.62c-2.79-0.929-5.115-1.239-8.06-1.239
			c-12.091,0-19.067,7.441-19.067,20.461c0,12.712,6.666,19.687,18.912,19.687c2.634,0,4.805-0.155,8.215-0.619V55.62z"/>
		<path fill="#092E20" d="M113.312,36.865v55.338c0,19.067-1.395,28.212-5.58,36.118c-3.876,7.597-8.992,12.401-19.532,17.672
			l-22.167-10.541c10.541-4.96,15.656-9.299,18.911-15.967c3.411-6.82,4.497-14.726,4.497-35.497V36.865H113.312z M89.441,0.127
			h23.871v24.492H89.441V0.127z"/>
		<path fill="#092E20" d="M127.731,42.29c10.542-4.959,20.617-7.129,31.623-7.129c12.246,0,20.306,3.254,23.872,9.61
			c2.014,3.565,2.634,8.215,2.634,18.137v48.517c-10.697,1.55-24.182,2.636-34.102,2.636c-19.996,0-28.988-6.978-28.988-22.478
			c0-16.742,11.936-24.492,41.234-26.973v-5.27c0-4.34-2.17-5.889-8.216-5.889c-8.835,0-18.756,2.48-28.058,7.286V42.29z
			 M165.089,80.268c-15.812,1.55-20.927,4.031-20.927,10.231c0,4.65,2.946,6.82,9.456,6.82c3.566,0,6.82-0.309,11.471-1.084V80.268z
			"/>
		<path fill="#092E20" d="M197.487,40.585c14.105-3.72,25.731-5.424,37.512-5.424c12.246,0,21.082,2.789,26.354,8.215
			c4.96,5.114,6.509,10.694,6.509,22.632v46.812H243.99V66.938c0-9.145-3.1-12.557-11.625-12.557c-3.255,0-6.2,0.31-11.007,1.705
			v56.734h-23.871V40.585z"/>
		<path fill="#092E20" d="M277.142,125.842c8.372,4.34,16.742,6.354,25.577,6.354c15.655,0,22.321-6.354,22.321-21.546
			c0-0.155,0-0.31,0-0.465c-4.65,2.324-9.301,3.255-15.5,3.255c-20.927,0-34.26-13.796-34.26-35.652
			c0-27.129,19.688-42.473,54.564-42.473c10.232,0,19.688,1.084,31.159,3.409l-8.174,17.219c-6.356-1.24-0.509-0.166-5.312-0.631
			v2.481l0.309,10.074l0.154,13.022c0.155,3.254,0.155,6.51,0.311,9.765c0,2.945,0,4.341,0,6.511c0,20.462-1.705,30.072-6.82,37.977
			c-7.441,11.627-20.307,17.362-38.598,17.362c-9.301,0-17.36-1.395-25.732-4.651V125.842z M324.576,54.536c-0.31,0-0.619,0-0.774,0
			h-1.706c-4.649-0.155-10.074,1.084-13.796,3.409c-5.734,3.256-8.681,9.147-8.681,17.517c0,11.937,5.892,18.757,16.432,18.757
			c3.255,0,5.891-0.621,8.99-1.55v-1.706v-6.509c0-2.79-0.154-5.892-0.154-9.146l-0.154-11.005l-0.156-7.906V54.536z"/>
		<path fill="#092E20" d="M398.062,34.85c23.871,0,38.443,15.037,38.443,39.373c0,24.958-15.19,40.614-39.373,40.614
			c-23.873,0-38.599-15.037-38.599-39.218C358.534,50.505,373.726,34.85,398.062,34.85z M397.595,95.614
			c9.147,0,14.573-7.596,14.573-20.772c0-13.02-5.271-20.771-14.415-20.771c-9.457,0-14.884,7.597-14.884,20.771
			C382.87,88.019,388.296,95.614,397.595,95.614z"/>
	</g>
</g>
</svg>
